<?xml version="1.0" encoding="UTF-8"?>
<svg viewBox="0 0 380.14145 578.17426" xmlns="http://www.w3.org/2000/svg" xmlns:xlink="http://www.w3.org/1999/xlink">
 <defs>
  <clipPath id="aw">
   <path d="m286.83 212.06 19.834 90.479c24.013 14.44 38.497 34.965 48.655 58.251 4.4765 14.698 4.8217 33.353 2.7556 54.317-7.1771 22.782-16.357 42.208-36.491 43.272-5.3825-0.41027-6.9583-7.1651-8.5061-13.966-5.2737-13.254-10.548-18.956-15.821-25.977l10.426 41.608 16.657 12.709c13.709 30.3-27.257 25.112-37.991 32.001-36.474-2.8679-96.62-6.9126-92.843-60.092-8.0437-38.751-10.773-74.313 3.388-99.741 3.1615-15.05 8.0641-28.432 8.2667-46.316l-14.323-25.049c19.387-49.488 61.716-46.238 95.994-61.496z" fill-rule="evenodd"/>
  </clipPath>
  <filter id="am">
   <feGaussianBlur stdDeviation="1.3424"/>
  </filter>
  <filter id="al">
   <feGaussianBlur stdDeviation=".3343"/>
  </filter>
  <filter id="av">
   <feGaussianBlur stdDeviation="1.2214"/>
  </filter>
  <filter id="au">
   <feGaussianBlur stdDeviation="1.1011"/>
  </filter>
  <filter id="ao">
   <feGaussianBlur stdDeviation=".9871"/>
  </filter>
  <filter id="as" x="-.25097" y="-.09028" width="1.5019" height="1.1806">
   <feGaussianBlur stdDeviation="3.7383"/>
  </filter>
  <filter id="ar" x="-.25659" y="-.46032" width="1.5132" height="1.9206">
   <feGaussianBlur stdDeviation="3.3576"/>
  </filter>
  <filter id="ap" x="-.27162" y="-.0967" width="1.5432" height="1.1934">
   <feGaussianBlur stdDeviation="2.1143"/>
  </filter>
  <filter id="ak" x="-.2813" y="-.07867" width="1.5626" height="1.1573">
   <feGaussianBlur stdDeviation="2.3759"/>
  </filter>
  <filter id="aj" x="-.15349" y="-.13319" width="1.307" height="1.2664">
   <feGaussianBlur stdDeviation="2.0113"/>
  </filter>
  <filter id="ai" x="-.41478" y="-.08612" width="1.8296" height="1.1722">
   <feGaussianBlur stdDeviation="4.0034"/>
  </filter>
  <filter id="ah" x="-.1872" y="-.04457" width="1.3744" height="1.0891">
   <feGaussianBlur stdDeviation="1.3552"/>
  </filter>
  <filter id="ag" x="-.30095" y="-.11111" width="1.6019" height="1.2222">
   <feGaussianBlur stdDeviation="4.0829"/>
  </filter>
  <filter id="af" x="-.06986" y="-.19802" width="1.1397" height="1.396">
   <feGaussianBlur stdDeviation="2.4246"/>
  </filter>
  <filter id="at" x="-.56952" y="-.19913" width="2.139" height="1.3982">
   <feGaussianBlur stdDeviation="13.1221"/>
  </filter>
  <filter id="aq" x="-.12642" y="-.11069" width="1.2528" height="1.2214">
   <feGaussianBlur stdDeviation="3.4147"/>
  </filter>
  <filter id="an" x="-.15334" y="-.25603" width="1.3067" height="1.5121">
   <feGaussianBlur stdDeviation="4.9775"/>
  </filter>
  <linearGradient id="a">
   <stop stop-color="#decd87" offset="0"/>
   <stop stop-color="#540" offset="1"/>
  </linearGradient>
  <linearGradient id="ae" x1="457.11" x2="641.01" y1="23.469" y2="351.85" gradientUnits="userSpaceOnUse">
   <stop stop-color="#c8ab37" offset="0"/>
   <stop stop-color="#504416" offset="1"/>
  </linearGradient>
  <linearGradient id="aa" x1="538.9" x2="578.22" y1="454.23" y2="493.54" gradientUnits="userSpaceOnUse">
   <stop stop-color="#a05a2c" offset="0"/>
   <stop stop-color="#502d16" offset="1"/>
  </linearGradient>
  <linearGradient id="y" x1="503.28" x2="622.42" y1="419.83" y2="530.4" gradientUnits="userSpaceOnUse">
   <stop stop-color="#a05a2c" offset="0"/>
   <stop stop-color="#a05a2c" offset="1"/>
  </linearGradient>
  <linearGradient id="x" x1="534.1" x2="649.98" gradientUnits="userSpaceOnUse">
   <stop stop-color="#520" offset="0"/>
   <stop stop-color="#520" stop-opacity="0" offset="1"/>
  </linearGradient>
  <linearGradient id="w" x1="546.15" x2="619.56" y1="278.87" y2="435.48" gradientUnits="userSpaceOnUse">
   <stop stop-color="#c87137" offset="0"/>
   <stop stop-color="#a05a2c" offset="1"/>
  </linearGradient>
  <linearGradient id="v" x1="613.48" x2="662.12" y1="410.92" y2="450.88" gradientUnits="userSpaceOnUse">
   <stop stop-color="#c87137" offset="0"/>
   <stop stop-color="#deaa87" offset="1"/>
  </linearGradient>
  <linearGradient id="u" x1="532.68" x2="585.68" y1="350.98" y2="461.88" gradientUnits="userSpaceOnUse">
   <stop stop-color="#c87137" offset="0"/>
   <stop stop-color="#502d16" offset="1"/>
  </linearGradient>
  <linearGradient id="b" x1="566.67" x2="570.3" y1="543.8" y2="567.51" gradientUnits="userSpaceOnUse">
   <stop stop-color="#deaa87" offset="0"/>
   <stop stop-color="#502d16" offset=".9818"/>
   <stop stop-color="#28170b" offset="1"/>
  </linearGradient>
  <linearGradient id="o" x1="623.9" x2="641.28" y1="454.36" y2="457.83" gradientUnits="userSpaceOnUse">
   <stop stop-color="#deaa87" offset="0"/>
   <stop stop-color="#deaa87" stop-opacity=".498" offset=".5"/>
   <stop stop-color="#deaa87" stop-opacity=".2471" offset=".75"/>
   <stop stop-color="#deaa87" stop-opacity=".1216" offset=".875"/>
   <stop stop-color="#deaa87" stop-opacity=".0588" offset=".9375"/>
   <stop stop-color="#deaa87" stop-opacity="0" offset="1"/>
  </linearGradient>
  <linearGradient id="n" x1="641.71" x2="652.51" y1="494.32" y2="508.22" gradientUnits="userSpaceOnUse">
   <stop stop-color="#784421" offset="0"/>
   <stop stop-color="#2b1100" offset="1"/>
  </linearGradient>
  <linearGradient id="m" x1="646.17" x2="662.07" y1="481.32" y2="506.48" gradientUnits="userSpaceOnUse">
   <stop stop-color="#deaa87" offset="0"/>
   <stop stop-color="#28170b" offset="1"/>
  </linearGradient>
  <linearGradient id="l" x1="690.01" x2="836.23" y1="430.46" y2="443.45" gradientUnits="userSpaceOnUse">
   <stop stop-color="#28170b" offset="0"/>
   <stop stop-color="#784421" offset="1"/>
  </linearGradient>
  <linearGradient id="k" x1="794.96" x2="688.11" y1="550.41" y2="515.71" gradientUnits="userSpaceOnUse">
   <stop stop-color="#a05a2c" offset="0"/>
   <stop stop-color="#a05a2c" stop-opacity="0" offset="1"/>
  </linearGradient>
  <linearGradient id="j" x1="757.15" x2="678.57" y1="298.23" y2="360.68" gradientUnits="userSpaceOnUse">
   <stop stop-color="#784421" offset="0"/>
   <stop stop-color="#28170b" offset="1"/>
  </linearGradient>
  <linearGradient id="i" x1="794.64" x2="683.18" y1="320.94" y2="375.08" gradientUnits="userSpaceOnUse">
   <stop stop-color="#d38d5f" offset="0"/>
   <stop stop-color="#28170b" offset="1"/>
  </linearGradient>
  <linearGradient id="h" x1="800.47" x2="784.33" y1="369.52" y2="490.03" gradientUnits="userSpaceOnUse">
   <stop stop-color="#c87137" offset="0"/>
   <stop stop-color="#2b1100" offset="1"/>
  </linearGradient>
  <linearGradient id="g" x1="790.96" x2="818.12" y1="465.45" y2="532.2" gradientUnits="userSpaceOnUse">
   <stop stop-color="#c87137" offset="0"/>
   <stop stop-color="#520" offset="1"/>
  </linearGradient>
  <linearGradient id="f" x1="736.11" x2="703.7" y1="396.8" y2="392.87" gradientUnits="userSpaceOnUse">
   <stop stop-color="#ff7f2a" offset="0"/>
   <stop stop-color="#784421" stop-opacity="0" offset="1"/>
  </linearGradient>
  <linearGradient id="ad" x1="45.784" x2="18.506" y1="24.328" y2="32.976" gradientTransform="matrix(-.72601 -.40815 -.31293 .94693 640.49 335.56)" gradientUnits="userSpaceOnUse" xlink:href="#a"/>
  <linearGradient id="ac" x1="45.784" x2="18.506" y1="24.328" y2="32.976" gradientTransform="matrix(-.72601 -.40815 -.31293 .94693 637.88 352.07)" gradientUnits="userSpaceOnUse" xlink:href="#a"/>
  <linearGradient id="ab" x1="45.784" x2="18.506" y1="24.328" y2="32.976" gradientTransform="matrix(-.83179 -.34035 -.35852 .78963 649.06 322.5)" gradientUnits="userSpaceOnUse" xlink:href="#a"/>
  <linearGradient id="z" x1="45.784" x2="18.506" y1="24.328" y2="32.976" gradientTransform="matrix(-.72601 -.40815 -.31293 .94693 632.35 376.03)" gradientUnits="userSpaceOnUse" xlink:href="#a"/>
  <linearGradient id="t" x1="9.2142" x2="38.274" y1="12.458" y2="49.93" gradientTransform="matrix(.8455 0 0 .89103 580.25 365.05)" gradientUnits="userSpaceOnUse" xlink:href="#a"/>
  <linearGradient id="s" x1="9.2142" x2="38.274" y1="12.458" y2="49.93" gradientTransform="matrix(.89075 0 0 .97799 584.21 342.64)" gradientUnits="userSpaceOnUse" xlink:href="#a"/>
  <linearGradient id="r" x1="9.2142" x2="38.274" y1="12.458" y2="49.93" gradientTransform="matrix(.83613 0 0 .97799 589.35 322.98)" gradientUnits="userSpaceOnUse" xlink:href="#a"/>
  <linearGradient id="q" x1="9.2142" x2="38.274" y1="12.458" y2="49.93" gradientTransform="matrix(.83613 0 0 .97799 592.43 306.4)" gradientUnits="userSpaceOnUse" xlink:href="#a"/>
  <linearGradient id="p" x1="9.2142" x2="38.274" y1="12.458" y2="49.93" gradientTransform="matrix(.86344 0 0 1.022 596.3 290.27)" gradientUnits="userSpaceOnUse" xlink:href="#a"/>
  <radialGradient id="e" cx="51.6" cy="76.24" r="86.908" gradientTransform="matrix(-.97822 -1.4548 1.2987 -.87323 580.05 593.41)" gradientUnits="userSpaceOnUse">
   <stop stop-color="#deaa87" offset="0"/>
   <stop stop-color="#784421" offset=".1828"/>
   <stop stop-color="#28170b" offset=".3912"/>
   <stop stop-color="#502d16" offset=".6688"/>
   <stop stop-color="#502d16" offset=".8518"/>
   <stop stop-color="#28170b" offset="1"/>
  </radialGradient>
  <radialGradient id="d" cx="-7.1585" cy="52.831" r="57.969" gradientTransform="matrix(-.7302 .48439 -.35182 -.53036 586.01 485.84)" gradientUnits="userSpaceOnUse">
   <stop stop-color="#502d16" offset="0"/>
   <stop stop-color="#2b1100" offset="1"/>
  </radialGradient>
  <radialGradient id="c" cx="-27.747" cy="132.22" r="67.096" gradientTransform="matrix(-.54808 .27651 -.63161 -1.252 583.62 678.82)" gradientUnits="userSpaceOnUse">
   <stop stop-color="#341d0e" offset="0"/>
   <stop stop-color="#28170b" offset="1"/>
  </radialGradient>
 </defs>
 <g transform="matrix(.22466 -.091563 0 .22604 336.79 284.47)">
  <text x="591.42859" y="726.64789" font-family="Detectives Inc" font-size="23" text-anchor="end">
   <tspan x="591.42859" y="726.64789"/>
  </text>
  <text transform="matrix(1.1574 .0077089 -.25313 .86229 0 0)" x="131.08105" y="-127.7671" fill="#100f11" font-family="Arial Black" font-size="7.2087" text-anchor="end">
   <tspan x="131.08105" y="-127.7671"/>
  </text>
  <g transform="matrix(4.4511 1.803 0 4.424 -3672.3 -2746)">
   <path d="m596.11 70.275-7 0.21875c0.96977 30.958 19.15 66.296 31.969 98.719 6.4096 16.212 11.49 31.628 12.656 45s-1.344 24.405-10.031 33.219c-7.9851 7.3573-13.307 8.9221-17.625 13.594-2.1709 2.3485-3.7177 5.5016-4.5 9.6562s-0.95448 9.4177-0.75 16.969c0.20392 16.835 3.4974 34.599 3.9375 46.938l7-0.25c-0.47457-13.304-3.7754-30.853-3.9688-46.812v-0.0625c-0.19849-7.3299 0.04163-12.236 0.65625-15.5s1.4542-4.7857 2.75-6.1875c2.5915-2.8035 8.6004-5.188 17.375-13.312l0.0625-0.0625 0.03125-0.0625c10.306-10.457 13.339-24.081 12.062-38.719s-6.6256-30.561-13.125-47c-12.999-32.878-30.613-68.025-31.5-96.344zm-94.719 26.25-1.6875 6.7812c10.332 2.5776 19.757 5.8491 27.125 12.75s13.008 17.614 15.188 36.219c1.0517 22.257-1.3637 34.927 7.6875 56.594v0.03125c9.3898 22.02 19.273 37.065 26.031 53.938s10.642 35.72 8.1875 66.156l6.9687 0.5625c2.5215-31.269-1.5648-51.608-8.6562-69.312s-16.951-32.653-26.094-54.094c-8.5501-20.467-6.0412-31.416-7.1562-54.469v-0.21875c-2.3089-19.706-8.6399-32.349-17.375-40.531s-19.529-11.739-30.219-14.406z" fill="url(#ae)" fill-rule="evenodd"/>
   <path d="m591.2 72.431c2.8634 36.422 22.116 69.118 34.445 103.06 6.7462 19.152 14.597 40.586 7.6489 60.782-3.9011 11.51-14.803 17.982-24.25 24.656-8.8183 8.1245-5.7705 21.659-6.0225 32.374 0.5872 13.13 2.807 26.114 3.6788 39.22 5.8988 0.75748 1.2854-7.8548 1.9688-11.5-1.5783-17.159-4.8887-34.801-1.5938-51.906 2.9079-8.4571 13.078-10.394 18.625-16.719 15.085-13.114 15.314-35.521 10.575-53.378-10.4-41.673-35.554-78.916-41.669-121.81-0.57015-2.7012 0.83286-6.1539-3.4062-4.7812zm-89.094 29.438c15.716 3.2818 30.89 12.733 36.594 28.281 10.278 23.201 1.3495 49.842 10.997 73.159 11.551 30.645 33.444 57.759 36.097 91.372 1.182 10.779 1.0614 21.666 0.28125 32.469 5.6848 1.3123 2.3972-7.8027 3.5312-11.5 1.0987-25.797-5.6596-51.4-18.125-73.75-11.012-21.8-24.851-43.847-24.019-69.219 0.42235-20.065-0.92075-42.365-14.981-58.031-7.6114-8.4374-18.748-13.009-29.656-15.688l-0.71875 2.9062z" fill="#c8ab37" fill-rule="evenodd" filter="url(#av)"/>
   <path d="m570.85 282.23c17.025 17.073 5.3005 27.367 71.028 38.038l-57.514 124.13-52.828-36.857 39.314-125.31z" fill="#2b1100" fill-rule="evenodd" stroke="#000"/>
   <path d="m622.7 346.55c-0.44647-1.9816-1.9359-2.7949-3.3396-1.8235-5.9768 5.4869-11.996 13.776-17.869 12.366-1.4036 0.97136-2.1742 3.3487-1.7278 5.3302s1.9359 2.7949 3.3396 1.8235c5.8624-4.2956 11.139-9.676 17.869-12.366 1.4036-0.97136 2.1742-3.3487 1.7278-5.3303z" fill="url(#ad)" fill-rule="evenodd"/>
   <path d="m620.09 363.06c-0.44646-1.9816-1.9359-2.7949-3.3396-1.8235-5.9768 5.4869-11.996 13.776-17.869 12.366-1.4036 0.97137-2.1742 3.3487-1.7278 5.3303s1.9359 2.7949 3.3396 1.8235c5.8624-4.2956 11.139-9.676 17.869-12.366 1.4036-0.97136 2.1742-3.3487 1.7278-5.3302z" fill="url(#ac)" fill-rule="evenodd"/>
   <path d="m628.67 331.66c-0.51151-1.6524-2.218-2.3306-3.8261-1.5206-6.8476 4.5755-13.743 11.488-20.472 10.312-1.6081 0.81001-2.491 2.7924-1.9795 4.4448s2.218 2.3306 3.8261 1.5206c6.7166-3.582 12.761-8.0687 20.472-10.312 1.6081-0.81001 2.491-2.7924 1.9795-4.4448z" fill="url(#ab)" fill-rule="evenodd"/>
   <path d="m623.5 286.84c-19.438 1.3932-36.713-7.8409-51.72-17.524-16.983 5.0802-20.973 39.393-29.537 63.417-15.996 50.229-29.645 109.06-52.124 135.52-7.6553 47.415 16.39 117.76 74.71 108.59 19.251-3.9903 38.284-8.308 52.992-19.112 2.6492-6.4939 5.3435-12.965 3.4749-21.718 1.8114-1.2999-0.74847-11.343-3.4749-21.718h-10.425c2.5646-5.168-0.30437-7.0936-2.1157-9.3214-3.1736-3.9033-1.5219-9.4943-10.046-15.872 6.482-8.3977 7.3518-16.795 6.9498-25.193 6.0811 8.2715 12.162 10.426 18.243 26.93 3.1677 8.4328 3.9331 21.67 11.293 21.718 2.9714 6.7986 7.5028 10.477 17.375 3.4749 10.194-11.953 13.543-28.013 12.162-46.911l-10.931-30.842c0.77827-17.839-7.7829-26.338-13.393-37.788 11.033-35.292 10.715-56.396 13.031-80.792-6.0811-13.761-12.162-13.63-18.243-19.112l-30.405 96.429-5.2124 3.4749 27.396-113.65z" fill="url(#e)" fill-rule="evenodd"/>
   <path d="m575.21 462.14c-24.135-0.03328-47.409-1.6391-69.469 10.91-7.9968 5.9739-12.512 19.304-16.406 25.278 0.60648 6.3636 4.7319 3.5583 6.2902 9.817 33.305-23.223 53.51-20.095 93.522-22.505l7.2188 1.9688c5.3391-7.7023 6.158-15.423 5.8438-23.125-9.1118-1.5357-18.112-2.3315-27-2.3438zm27.5 2.4375c0.52685 0.68813 1.0356 1.3505 1.5625 1.9688l-0.34375-1.75-1.2188-0.21875z" fill="url(#d)" fill-rule="evenodd" stroke="url(#aa)" stroke-dasharray="2, 1"/>
   <path d="m614.56 387.01c-0.44647-1.9816-1.9359-2.7949-3.3396-1.8235-5.9768 5.4869-11.996 13.776-17.869 12.366-1.4036 0.97136-2.1742 3.3486-1.7278 5.3302s1.9359 2.7949 3.3396 1.8235c5.8624-4.2956 11.139-9.676 17.869-12.366 1.4036-0.97136 2.1742-3.3486 1.7278-5.3302z" fill="url(#z)" fill-rule="evenodd"/>
   <path d="m611.74 514.3c-0.31517 0.45609-0.62234 0.99653-0.9375 1.4375-1.466 2.0511-2.909 3.9462-4.375 5.6875-15.554 20.133-39.345 16.665-60.979 20.117l-18.833-5.5232c-1.8828-1.3934-3.5574-2.8481-5.0312-4.3438s-2.7613-3.0158-3.9062-4.5938-2.1351-3.2036-3.0312-4.8438-1.71-3.3177-2.4375-5c-1.455-3.3645-2.6453-6.7745-3.9062-10.188s-2.5733-6.8237-4.2812-10.125c-0.08129-4.5106 0.11232-8.3492 0.5-11.688s0.95392-6.1828 1.6875-8.6562 1.6061-4.5836 2.5625-6.5 2.0063-3.6144 3.0625-5.2812c2.1114-3.9253 4.0074-7.8018 5.7188-11.594s3.2287-7.5109 4.5938-11.188 2.5836-7.2959 3.6562-10.875 2.0099-7.1255 2.8438-10.625c1.6678-6.999 2.9018-13.868 3.9375-20.656s1.8849-13.498 2.7188-20.219c-0.09353-2.4281-0.26843-4.4808-0.5-6.2188s-0.53396-3.1532-0.875-4.3438-0.73429-2.1516-1.1562-2.9375c-0.14431-0.26879-0.31722-0.42358-0.46875-0.65625-12.219 41.013-24.471 81.926-42.188 102.78-7.6553 47.415 16.398 117.77 74.719 108.59 19.251-3.9903 38.291-8.321 53-19.125 15.103-18.291 7.8424-31.184 0-43.438h-6.0938z" fill="url(#c)" fill-rule="evenodd" stroke="url(#y)" stroke-dasharray="3, 1"/>
   <path d="m534.6 387.88 5.5285-20.886 8.6-23.957 6.7571-31.943 6.7571-21.5 7.9857-15.357 14.128 11.057c9.1103 3.0905 17.879 6.5227 28.077 8.5254-8.654 21.075-18.62 54.321-18.279 88.816-4.637 14.861-11.162 22.082-4.2691 42.714 7.332 5.395 12.993 21.872 25.186-6.7571-1.3607-9.1218-1.0838-17.698 2.4571-25.186 2.0474-24.572 8.4456-38.267 13.514-55.285l4.9142-22.114 13.514 12.286" fill="url(#x)" fill-rule="evenodd" stroke="url(#w)" stroke-dasharray="2, 1"/>
   <path d="m636.58 402.01c-13.345 9.3836-17.175 28.282-22.728 45.457-4.1574 12.926-7.3071 18.798-9.8285 20.271" fill="none" stroke="url(#v)" stroke-dasharray="2, 1"/>
   <path d="m548.76 345.33c9.382 4.6916 20.01 6.8908 31.708 6.9498-1.5951 31.392-4.6176 71.469-25.627 96.429-12.499 12-23.598 13.789-39.961 12.162" fill="none" stroke="url(#u)" stroke-dasharray="2, 1"/>
   <path d="m552.67 357.06c-11.449 30.907-16.818 64.854-25.193 97.297 6.0736-8.1171 8.1573-21.022 18.243-24.324 1.8912-6.243 4.3107-12.645-1.7374-16.506 4.0205-3.9516 7.0013-8.3192 6.9498-13.9-3.7202-9.8013 0.22685-11.935 0.86873-17.375l5.2124-9.556 5.2124-7.8185c-0.97918-11.431-5.4091-9.0585-9.556-7.8185z" fill="#f4e3d7" fill-rule="evenodd" filter="url(#as)" opacity=".5" stroke="#e9c6af"/>
   <path d="m521.39 472.6h26.062l-27.799 16.506 4.3436-5.2124-6.9498-6.9498 4.3436-4.3436z" fill="#f4e3d7" fill-rule="evenodd" filter="url(#ar)" opacity=".5" stroke="#000"/>
   <path d="m569.17 293.64-9.8631 44.454c4.3224 2.3875 10.725 9.6363 15.795 6.0374-5.5863-2.5566-6.6865-6.0104-8.3365-9.3542 0.55763-3.1086 6.7283-2.0075 10.223-2.9133-15.592-1.9838-6.8975-19.754-7.8185-31.274v-6.9498z" fill="#f4e3d7" fill-rule="evenodd" filter="url(#ap)" opacity=".3333" stroke="#f4e3d7"/>
   <path d="m614.05 528.27c-1.2983 1.6285-2.695 3.1469-4.1765 4.5612s-1.205 8.8674-2.8426 10.08-2.4058-6.2712-4.1329-5.1835c-1.1836 0.74545-5.0086 0.64515-6.3078 2.333-1.153 1.4979-0.59236 5.5761-1.3616 5.9235-1.869 0.84398-4.3118-0.44118-6.3406-0.79153-0.63921-0.11038-0.21733 4.6261-1.4244 4.8943-0.93147 0.20695-3.5358-4.1796-3.9772-3.4931-0.96342 1.4982 0.3084 4.5275-0.50973 5.3938-1.4144 1.4977-4.0019-4.0213-6.0153-3.6394-0.95469 0.1811-0.82433 8.817-1.7793 8.9682-1.059 0.16765-3.2033-8.1528-4.2589-8.0203-0.87691 0.09215-1.1398 5.0988-2.0171 5.1904s-2.3692-4.7318-3.2471-4.6429-1.7559 0.17614-2.6342 0.26044-2.9855 4.4657-3.8644 4.5433-0.52944-4.1488-1.4089-4.08-1.7592 0.13257-2.6392 0.19044-1.7604 0.10979-2.641 0.15472-1.1473 8.0686-2.0286 8.0985c-1.8686 0.01124-6.0326-10.087-6.2568-8.2061-1.8879 15.842-3.7776 5.4924-5.6534-0.74314-0.54902-1.8251-3.7377-0.76509-5.5699-1.2872-1.0492-0.29899-2.0886 5.235-3.1154 4.8735-0.76635-0.26979-1.5257-6.4211-2.2767-6.7263-1.7573-0.71424-3.4692-1.5263-5.12-2.4398-0.69817-0.38633-0.95105 4.6387-1.6262 4.2159-0.92121-0.57702-2.2542-6.6178-3.1273-7.2641-1.5129-1.1199-2.9491-2.3447-4.2927-3.6781s-2.5947-2.7754-3.7376-4.3294c-0.16808-0.18122-0.36045-0.4339-0.56441-0.72802s-0.41949-0.62966-0.63392-0.97662-0.42773-0.70533-0.62722-1.0451l-0.5443-0.93343c-0.15915-0.27252-0.29177-0.4964-0.38517-0.64163s-0.14758-0.21181-0.14983-0.1697 0.04743 0.19288 0.16174 0.48236 0.29324 0.71767 0.54951 1.3146c0.73498 1.7794 1.5373 3.5463 2.4071 5.2879s1.8071 3.4578 2.812 5.1357 2.0774 3.3177 3.2176 4.9062 2.3482 3.126 3.6241 4.5994 2.6196 2.8827 4.0312 4.2151 2.8914 2.5878 4.4392 3.7534 3.1637 2.2414 4.8478 3.2144 3.4365 1.8433 5.2573 2.598c1.792 0.7089 3.6082 1.2807 5.4425 1.7298s3.6864 0.77564 5.5502 0.99398 3.7392 0.32852 5.62 0.34501 3.7668-0.06069 5.6518-0.21709 3.7691-0.392 5.6458-0.69233 3.7461-0.66539 5.6018-1.0807 3.6978-0.88087 5.5199-1.3822 3.6243-1.0384 5.4001-1.5968c0.86373-0.2952 1.7301-0.58414 2.5981-0.86945s1.7376-0.56697 2.6077-0.84764l2.6109-0.8416c0.8701-0.28127 1.7397-0.56417 2.6076-0.85131s1.7343-0.57852 2.5979-0.87678 1.7246-0.60338 2.5817-0.91801 1.7106-0.63874 2.5592-0.97499 1.6923-0.68461 2.5301-1.0477c0.94195-0.47861 1.8757-1.0195 2.7861-1.6171s1.7976-1.2521 2.6462-1.9578 1.659-1.4629 2.4158-2.2659 1.46-1.6519 2.0946-2.5412 1.2006-1.8191 1.6829-2.7839 0.88085-1.9646 1.1806-2.9939 0.50066-2.0882 0.58765-3.1712 0.06007-2.19-0.09589-3.3158c-0.09697-0.20645-0.1821-0.45985-0.26014-0.74543s-0.14898-0.60331-0.21757-0.9384-0.13482-0.68756-0.20345-1.0426-0.13965-0.71261-0.2178-1.058-0.16344-0.67845-0.26061-0.98451-0.20621-0.58508-0.33188-0.82226-0.26795-0.43252-0.4316-0.57121-0.34867-0.22074-0.55979-0.23135z" fill="url(#b)" fill-rule="evenodd" filter="url(#am)" opacity=".35"/>
   <path d="m613.52 531.95c-5.1799 2.698-0.89704 11.635-6.9375 13.094-3.8824-0.23576-2.4221-7.7319-7.25-4.3438-3.2856 1.3012 0.00168 8.5864-5.75 7.5625-2.5768-0.75716-3.6496-0.66839-3.8438 2.2188-0.63394 2.5161-3.9422 0.99037-4.5 1.0312-0.4151 4.1826-5.7773 2.638-7-0.03125 0.1657 2.8252-0.81138 10.388-5.0625 6.8125-1.4537-1.9497-1.336-5.0718-3.2812-2.0625-3.8825 2.1384-4.4508-7.635-7.1562-2.75-0.8204 3.2869-6.0201 4.4643-6.1562 0.1875-1.8185-3.1054-4.0059 1.137-3.5 3.7188 0.34773 4.0585-4.6466 4.5214-6.0312 1.2188-1.4801-3.0727-1.8456-2.607-2.4688 0.46875-1.4885 4.1884-6.2202 1.0232-6.1875-2.3125-0.95918-2.6109-0.78815-7.5074-4.75-5.7188-0.10354 3.6452-5.3047 6.8714-6.3125 1.9688-0.02508-2.3534-1.7798-6.6549-3.9375-5.0625-0.56561 2.0424-2.0693 3.03 0.53125 4.4688 10.865 11.797 27.881 15.28 43.188 11.969 12.655-2.717 25.411-6.5206 37.188-11.969 6.7915-3.9594 13.031-12.859 9.2188-20.469zm-96.969 11.5c-0.01966-0.67625-1.4634-1.5887 0 0z" fill="url(#b)" fill-rule="evenodd" opacity=".35"/>
   <path d="m556.68 358.02c-4.8638 0.78067-4.016 7.7805-6.125 11.375-7.3488 23.048-11.97 46.949-17.5 70.531 2.4745-4.6811 5.9177-9.4315 11.062-11.438 1.9854-4.9337 3.354-12.306-3.1875-14.688 4.9145-4.4003 10.195-11.093 6.8125-17.906-1.6198-9.4302 4.2444-18.175 8.7327-25.946 3.3772-2.9263 5.1182-8.8414 1.2985-11.897-0.35559-0.08172-0.7341-0.09163-1.0938-0.03125z" fill="#f4e3d7" fill-rule="evenodd" opacity=".15" stroke="#e9c6af"/>
   <path d="m561.55 337.14c2.4087 1.6869 1.7422 6.5552 7.3125 5.0312-3.8962-4.57-5.3226-13.043 2.6286-11.463 2.5017-0.28854-5.1461-2.2996-4.941-4.0366-0.94606-2.469 1.7126-23.279 1.8268-25.903-1.3542 6.0833-5.4726 30.288-6.8268 36.371z" fill="#f4e3d7" fill-rule="evenodd" filter="url(#al)" opacity=".1625" stroke="#f4e3d7"/>
   <path d="m594.15 381.71c1.0816-1.3733 2.8084-1.3542 3.8717 0.04277 4.0892 7.0205 7.3103 16.283 13.536 17.784 1.0633 1.397 1.0485 3.6273-0.03311 5.0006s-2.8084 1.3542-3.8717-0.04277c-4.3635-6.0241-7.799-12.647-13.536-17.784-1.0633-1.397-1.0485-3.6273 0.03311-5.0006z" fill="url(#t)" fill-rule="evenodd"/>
   <path d="m598.86 360.92c1.1395-1.5073 2.9587-1.4864 4.0789 0.04694 4.308 7.7056 7.7015 17.872 14.261 19.52 1.1202 1.5333 1.1046 3.9812-0.03488 5.4886s-2.9587 1.4864-4.0789-0.04694c-4.597-6.612-8.2164-13.882-14.261-19.52-1.1202-1.5333-1.1046-3.9812 0.03488-5.4886z" fill="url(#s)" fill-rule="evenodd"/>
   <path d="m603.11 341.26c1.0696-1.5073 2.7773-1.4864 3.8288 0.04694 4.0438 7.7056 7.2293 17.872 13.386 19.52 1.0515 1.5333 1.0369 3.9812-0.03274 5.4886s-2.7773 1.4864-3.8288-0.04694c-4.3151-6.612-7.7126-13.882-13.386-19.52-1.0515-1.5333-1.0369-3.9812 0.03275-5.4886z" fill="url(#r)" fill-rule="evenodd"/>
   <path d="m606.18 324.68c1.0696-1.5073 2.7773-1.4864 3.8288 0.04694 4.0438 7.7056 7.2293 17.872 13.386 19.52 1.0515 1.5333 1.0369 3.9812-0.03274 5.4886s-2.7773 1.4864-3.8288-0.04694c-4.3151-6.612-7.7126-13.882-13.386-19.52-1.0515-1.5333-1.0369-3.9812 0.03275-5.4886z" fill="url(#q)" fill-rule="evenodd"/>
   <path d="m610.5 309.37c1.1046-1.5752 2.868-1.5533 3.9539 0.04905 4.1759 8.0525 7.4654 18.677 13.823 20.399 1.0858 1.6024 1.0708 4.1605-0.03382 5.7357s-2.868 1.5533-3.9538-0.04905c-4.4561-6.9096-7.9645-14.507-13.823-20.399-1.0858-1.6024-1.0708-4.1605 0.03381-5.7357z" fill="url(#p)" fill-rule="evenodd"/>
   <path d="m639.65 325.23-13.514 68.185-4.9142 14.128 14.278-28.239c1.0136-16.999 0.12504-23.338 5.9938-38.718l-1.8428-15.357z" fill="#e9c6af" fill-rule="evenodd" filter="url(#ak)" opacity=".6875"/>
   <path d="m623.9 462.18 1.7374-21.718 7.8185-19.112 7.8185 30.405-2.6062 29.537-6.0811 13.031-8.6873-32.143z" fill="url(#o)" fill-rule="evenodd" filter="url(#ah)" opacity=".5875"/>
   <path d="m548.73 532.24c-10.189-2.4193-18.813-4.404-20.886-14.128-13.351-20.771-4.0464-14.357-2.4571-17.2 8.3862 1.9937 15.718-2.3394 23.343-4.9142-11.593 11.973-8.1978 17.253 0.92142 23.65 2.7975 6.6066 4.3014 9.1943-0.92142 12.593z" fill="#deaa87" fill-rule="evenodd" filter="url(#aj)" opacity=".2708"/>
   <path d="m537.65 504.33c-3.9257 5.4706-9.1841 1.8501-12.281 1.5938 3.8614 5.5462 5.707 12.284 10.062 17.438 3.6192 2.1031 8.724 4.5602 12.625 4.0938 0.44402-6.4901-8.3312-7.9577-9.625-13.938-1.5496-2.7637-0.88377-7.0948-0.78125-9.1875z" fill="#deaa87" fill-rule="evenodd" opacity=".2708"/>
   <path d="m720.53 108.08c-7.1335-0.23888-13.982 1.0163-20.375 3.4688-12.785 4.9048-23.782 14.482-32.625 26.375-17.686 23.785-27.078 56.862-24.031 83.188l6.9375-0.8125c-2.774-23.968 6.2039-56.009 22.719-78.219 8.2574-11.105 18.322-19.712 29.5-24 11.023-4.2287 23.15-4.3806 36.531 1.5625 17.714 16.761 22 40.588 18.844 65.906s-13.869 51.719-25.5 72.188c-13.332 10.748-17.652 23.755-17.781 36.656-0.13172 13.113 3.5459 26.264 5.3125 38.688l6.9062 0.09375 1.9688-11.781-3.9375-0.65625c-1.6754-9.0831-3.333-18.015-3.25-26.281 0.11763-11.71 3.3921-22.066 15.719-31.719l0.53125-0.4375 0.34375-0.59375c12.101-21.176 23.279-48.467 26.625-75.312s-1.2733-53.604-21.375-72.281l-0.4375-0.40625-0.5-0.21875c-7.5631-3.4476-14.992-5.1674-22.125-5.4062zm103.81-108.06c-3.4056 0.20079-6.5993 1.7485-9.5625 4.0938-5.9264 4.6905-11.302 12.749-16.312 23.406-10.021 21.315-18.257 53.215-20.875 89.094v0.03125c-1.5862 25.475 0.7563 42.41 6.9688 66.75 0.00537 0.02105-0.00538 0.04143 0 0.0625 5.823 48.802-14.144 104.51-47.812 138.84l5 4.9062c35.345-36.049 55.893-93.371 49.75-144.66l-0.03125-0.21875-0.03125-0.21875c-6.2161-24.255-8.4026-39.995-6.8438-65.031 2.5617-35.112 10.689-66.391 20.188-86.594 4.7491-10.101 9.9394-17.389 14.344-20.875 2.2022-1.7429 4.0991-2.5038 5.625-2.5938s2.8568 0.32832 4.5312 1.8125c21.124 18.724 30.809 55.171 32.094 78.594l7-0.40625c-1.3646-24.871-10.816-62.5-34.438-83.438-2.7719-2.457-6.1882-3.7633-9.5938-3.5625z" fill="#a0892c" fill-rule="evenodd"/>
   <path d="m824.53 2.0202c-11.698 1.8748-17.679 14.115-22.822 23.426-15.249 32.205-21.465 68.109-22.584 103.64-0.6366 19.192 3.5627 37.923 7.6875 56.469 4.3945 49.004-13.246 99.314-46.155 135.57-2.2692 4.7209 4.0928 2.2073 5.1335-1.2233 32.25-37.278 49.109-88.074 43.709-137.29-7.9345-27.497-9.2647-56.662-4.8983-84.913 4.2116-28.119 10.331-57.102 25.867-81.275 3.8852-5.5136 10.611-14.123 18.281-10.438 17.789 14.485 26.307 37.218 31.438 58.875 1.4768 6.7428 2.5492 13.559 3.0625 20.438 5.6883 1.329 1.5618-5.9855 2.1154-8.8972-4.0165-26.737-13.207-54.868-34.615-72.728-1.8584-1.106-4.0375-1.8027-6.2188-1.6562zm-107.88 108.09c-25.622 1.1986-45.103 21.83-56.406 43.031-10.639 20.004-16.762 42.863-14.969 65.719 5.2106 0.65851 1.7563-5.9027 2.6562-9.1562 1.2534-30.452 13.237-61.347 35.719-82.125 13.63-12.816 34.352-18.64 52.163-11.42 8.3196 2.6812 12.746 11.237 17.087 18.295 13.135 25.957 8.2993 56.989-0.44507 83.604-4.8496 14.277-10.926 28.306-18.649 41.209-13.409 10.007-19.054 27.275-16.656 43.531 0.85899 9.4877 3.1956 18.857 4.625 28.312 6.2104 1.3065 5.6895-9.6694 1.25-10-3.1976-16.785-7.0096-36.725 4.5-51.312 3.8364-5.4364 10.381-8.5248 12.406-15.156 15.51-29.816 27.296-63.677 23.062-97.688-2.2552-15.85-9.2994-32.094-22.071-42.06-7.6084-3.2945-15.856-5.2162-24.273-4.7833z" fill="#c8ab37" fill-rule="evenodd" filter="url(#au)"/>
   <path d="m651.92728,442.82842c-.00512.81868-.03296,1.52196-.03125,2.375 .01096,5.47772.14353,11.58739.0625,17.5625-.04052,2.98756-.12781,5.93646-.3125,8.75s-.46534,5.49689-.875,7.9375-.94084,4.66248-1.65625,6.53125c-.35771.93438-.76946,1.77712-1.21875,2.53125s-.94902,1.41974-1.5,1.96875c.09854.92686.08933,1.80761 0,2.6875s-.24792,1.75454-.5,2.59375c-.50418,1.67841-1.30819,3.25913-2.3125,4.8125s-2.19667,3.08388-3.5,4.5625-2.72377,2.92085-4.125,4.375c-.64982-.97302-1.23786-1.69596-1.75-2.1875s-.95562-.75149-1.34375-.8125-.72222.08769-1,.40625-.47515.79032-.65625,1.4375c-.26128.93364-.34271,2.4807-.4375,3.96875 .32014.05959.58868.21649.9375.21875 2.97137,6.79856 7.5033,10.50208 17.375,3.5 10.19353-11.95337 13.56804-28.00843 12.1875-46.90625l-9.34375-26.3125z" fill="url(#n)" fill-rule="evenodd" stroke="url(#m)" stroke-dasharray="3, 1"/>
   <path d="m775.06 282.34 19.834 90.479c24.013 14.44 38.497 34.965 48.655 58.251 4.4765 14.698 4.8217 33.353 2.7556 54.317-7.1771 22.782-16.357 42.208-36.491 43.272-5.3825-0.41027-6.9583-7.1651-8.5061-13.966-5.2737-13.254-10.548-18.956-15.821-25.977l2.6746 10.674c1.9968 3.7341 4.3178 7.5763 2.5169 10.045 2.4675 3.2282 4.5381 6.7209 3.1389 12.527 0.94279 2.6411 4.0585 3.9785 2.0956 8.3631l16.657 12.709c13.709 30.307-27.257 30.281-37.991 32.001-34.744-2.7318-90.967-6.5316-92.958-52.851-2.5423-5.5599-1.1529-10.783-1.6578-16.212-6.5928-35.245-7.9003-67.319 5.161-90.771 3.1615-15.05 8.0641-28.432 8.2667-46.316l-14.323-25.049c19.387-49.488 61.716-46.238 95.994-61.496z" fill="url(#l)" fill-rule="evenodd"/>
   <path d="m715.94 488.86c14.074 5.912 25.368 16.74 41.223 12.759l15.704 3.926 5.889 15.704c-5.5618 5.1782-11.124 8.2086-16.685 10.796l14.722-0.9815c-3.548 5.2855-9.0184 8.6486-13.741 12.759 5.889-2.2609 11.778-0.94736 17.667-7.852 2.5755 5.9099 3.6726 12.559 13.741 14.722-0.93274 4.4449-0.82915 9.1725-15.704 9.815-23.919-0.27862-49.969-1.9128-63.797-23.556-0.40585-9.7653-0.14925-19.398-6.8705-30.426-3.877-13.348-3.4612-19.58 7.852-17.667z" fill="url(#k)" fill-rule="evenodd" filter="url(#ao)" opacity=".3958"/>
   <path transform="matrix(1.0001 0 0 .95791 576.97 359.73)" d="m194.11 167.26-18.428-19.657c-10.832-36.375-13.115-43.815 2.4571-76.915 24.977 21.161 1.8824 44.213 15.971 96.572z" fill="#ffe6d5" fill-rule="evenodd" filter="url(#ai)" opacity=".3792" stroke="#ffe6d5"/>
   <path d="m775.05 282.35c-34.277 15.259-76.594 11.998-95.981 61.486l14.314 25.055c-0.00814 0.71887-0.13335 1.3308-0.15627 2.0356 0.69983-1.1418 1.5715-2.7237 1.8752-3.1132 1.0746-1.378 2.242-2.6531 3.4692-3.8316s2.5115-2.2707 3.8755-3.2629 2.7967-1.9052 4.2818-2.7241 3.0352-1.5565 4.6256-2.2152 3.227-1.2248 4.9069-1.7362 3.4032-0.93984 5.1569-1.3171c3.5073-0.75457 7.1374-1.2604 10.845-1.5566s7.4694-0.38695 11.251-0.32928 7.5837 0.26158 11.314 0.56876c7.4604 0.61436 14.694 1.6184 21.19 2.6043 1.1428 0.1429 2.2137 0.38255 3.2504 0.71843s2.0364 0.76146 2.9691 1.2573c1.8654 0.9916 3.5391 2.279 5.0006 3.7119s2.7076 3.0301 3.7817 4.6399 1.9535 3.2375 2.6566 4.7596c0.03618 0.07831 0.38134 0.18575 0.46881 0.26941l-19.096-87.02z" fill="url(#j)" fill-rule="evenodd" stroke="url(#i)" stroke-dasharray="2.93637401, 0.97879134" stroke-width=".97879"/>
   <path d="m795.08 374.3c2.125 15.157 4.3892 30.368-1.1854 42.576-8.3378 16.823-10.998 56.075-7.705 72.663" fill="none" stroke="url(#h)" stroke-dasharray="2.937, 0.979" stroke-width=".979"/>
   <path d="m811.4 414.23c-6.3552 2.8157-5.757 11.578-7.0312 17.281-0.58924 7.5256-1.4635 15.573-0.34375 22.844 6.197 5.0907 13.004 11.072 13.469 19.75 1.9911 9.0351 2.2443 18.334 2.375 27.562 15.79-14.235 19.617-38.816 10.719-57.656-2.1344-5.8084-3.156-12.372-1.9688-18.375-4.9448-4.5991-9.9533-10.999-17.219-11.406z" fill="#f4e3d7" fill-rule="evenodd" filter="url(#ag)" opacity=".4917" stroke="#f4e3d7" stroke-width=".75754"/>
   <path transform="matrix(1.0019 0 0 .62035 575.99 355.3)" d="m184.54-27.723c-21.172 9.881-36.108 10.54-52.426 13.063-4.8591 6.6363-9.8515-0.56302-11.102 2.8311 1.7184 1.0774 1.434 9.205 3.2654 9.8493 20.775-18.488 51.531-13.304 78.594-6.5159 2.3905-1.0711-2.002-7.2723-2.0515-9.6079-2.091-5.2492-1.7705-5.7298-3.8616-10.979l-6.1747-1.4207-6.2445 2.7798z" fill="#f4e3d7" fill-rule="evenodd" filter="url(#af)" opacity=".2417" stroke="#f4e3d7" stroke-dasharray="2.18584155, 0.72861385" stroke-width=".72861"/>
   <path d="m812.95 420.87c-3.8986 7.9335-2.2162 17.258-3.5938 25.844-1.1517 5.1949 4.1647 7.292 6.9062 10.594 1.7758-0.14576 7.1965-3.4566 7.1875 1.2812-0.59069 3.1248-3.9666 5.804-1.4062 8.8438 2.1094 5.3943 2.5367 11.186 3.1875 16.875 6.7039-13.904 4.1174-30.325-2.0625-43.875-2.1259-5.4189 1.4321-12.73-4.5625-16.094-1.5837-1.4338-3.4623-3.4555-5.6562-3.4688z" fill="#f4e3d7" fill-rule="evenodd" opacity=".1792" stroke="#f4e3d7" stroke-width=".75754"/>
   <path d="m784.73 471.2c8.9287 11.948 19.058 23.211 22.73 38.163 1.4215 7.3714 5.5787 12.896 10.159 17.109" fill="none" stroke="url(#g)" stroke-dasharray="3, 1"/>
   <path d="m756.55 438.1c-7.0206 14.24-8.7401 30.977-2.7816 45.8 1.6021 6.12 2.799 12.732 7.2822 17.602-2.7219-18.717 1.9107-37.689-0.59383-56.337-0.69995-1.9224-2.3782-7.5808-3.9067-7.0646z" fill="#ffe6d5" fill-rule="evenodd" opacity=".1542" stroke="#ffe6d5" stroke-width=".97879"/>
   <path d="m768.53 367.63c-6.6996 11.716-13.76 23.312-9.6573 38.629-13.447 9.6402-21.269 22.093-27.362 35.41-17.4-14.692-23.147-34.38-27.805-54.533l16.538 7.8558c9.2447 2.336 18.478 4.6594 9.6573-12.876 3.359-18.425 23.188-13.32 38.629-14.486z" fill="url(#f)" fill-rule="evenodd" filter="url(#aq)" opacity=".1375"/>
   <path transform="translate(488.23 70.275)" d="m197.81 340.88c-0.31101 1.3439-0.65038 2.6957-0.9375 4.0625-14.161 25.428-11.419 60.968-3.375 99.719-2.4264 34.167 21.541 48.053 48.656 54.375l-8.9688-10.562-11.781-18.75-4.875-19.438 2.7812-25.656v-26.375l6.25-0.6875 9.7188-11.125-9.0312-4.8438-14.562-7.6562-9.0312-23.594-4.8438-9.4688z" clip-path="url(#aw)" fill="#0b0705" fill-rule="evenodd" filter="url(#at)"/>
   <path d="m762.64 301.77c-21.487 6.6172-46.888 11.062-61.031 30.281-3.7321 4.034-8.8823 10.624-4.4375 15.844 17.078-11.822 39.536-11.829 59.685-10.404 5.3826 0.14399 11.875 1.5302 16.502 1.029-3.8425-9.7772-4.1863-20.517-7.0829-30.6-1.1576-1.878-0.12525-8.6098-3.6358-6.1499z" fill="#c87137" fill-rule="evenodd" filter="url(#an)" opacity=".2417"/>
  </g>
  <path transform="matrix(4.4511 1.803 0 4.424 -2238 -1887.1)" d="m381.89 253.98c12.527-7.7774 25.724-12.871 39.408-16.021-1.8125 10.696-2.0925 20.882-0.43401 30.421-10.104 0.09699-24.884 7.0824-38.106 16.455-2.4015-12.925-3.0888-23.708-0.86802-30.855z" fill="#decd87" fill-rule="evenodd"/>
  <path transform="matrix(4.4511 1.803 0 4.424 -2238 -1887.1)" d="m416.72 241.16c-11.48 3.3492-23.776 7.584-33.281 14.719-1.7961 8.3991-0.55663 17.149 0.71875 25.531 10.499-6.8069 21.781-13.316 34.375-14.906-1.2045-8.5848-0.9284-17.39 0.34375-25.906l-2.1562 0.5625z" fill="#decd87" fill-rule="evenodd" stroke="#800000" stroke-dasharray="1.07525051, 0.53762525" stroke-width=".53763"/>
  <g transform="matrix(8.2542 0 0 8.2542 -2106.4 -91.368)" fill="#333">
   <g fill="#333">
    <g fill="#333">
     <g fill="#333">
      <g fill="#333">
       <g fill="#333">
        <g transform="translate(326.39 -431.75)" fill="#333">
         <g fill="#333">
          <g fill="#333">
           <path d="m-126.39798,435.18006c-.05265.00269-.10475.01213-.155.02808-2.1297.67166-3.89872,1.42569-6.94153,1.41863-.18704-.00044-.36416.08409-.48145.22979s-.16207.33677-.12172.5194l1.44671,6.58098c.05463.24795.25573.43701.50658.47624 2.65153.41506 3.64848.68758 5.46336,1.7601 .19862.11727.44611.11381.64136-.00899 1.80616-1.1375 2.79442-1.44007 5.4263-1.74773 .2612-.0307.47414-.22378.53016-.48074l1.44671-6.62591c.04019-.18484-.00674-.37789-.1273-.52365s-.30137-.22809-.49047-.22329c-2.60295.06675-4.75375-.57918-6.90109-1.36584-.07757-.02851-.16008-.04111-.24262-.03707zm-7.09782,2.06391c3.14705.00729 5.03288-.78709 7.12863-1.44804 2.17004.79498 4.41452,1.47167 7.12863,1.40207l-1.44639,6.62619c-2.66547.31159-3.82608.6698-5.68224,1.83879-1.86517-1.10224-3.01007-1.4205-5.68224-1.83879l-1.44639-6.58022zm4.73635.61287 .07466-.0034c.18116,0 .27175.09088.27175.27262v.01023c-.002.02272-.00299.0443-.00299.06474 0,.18857.0209.35214.06271.49072 .25682.70202.62613,1.86521 1.10792,3.4896 .09755.18401.25582.27603.47482.27603 .12343.01363.18515.09087.18515.23172 0,.01364-.001.02841-.00299.04431-.00995.07497-.07167.11246-.18514.11246l-.81526-.03408h-1.38565c-.14533,0-.218-.05566-.218-.16699 0-.13857.06968-.21922.20904-.24195 .15131-.02271.23592-.05339.25384-.09201 .00796-.02044.01194-.04657.01195-.07838s-.00299-.05679-.00896-.0886l-.28072-.75653c-.02189-.06362-.0647-.09996-.12841-.10905h-.86603c-.15927,0-.26279.08406-.31057.25217l-.17022.57252c-.00199.01817-.00299.03635-.00299.05452 0,.14313.09158.22378.27475.24195 .16324.02045.24487.09429.24487.22151-.00398.11132-.05475.17494-.1523.19084h-1.34683c-.10949,0-.16424-.05907-.16424-.17721v-.01022c0-.10678.05774-.17721.1732-.21129 .13539-.0159.25086-.05906.34642-.12949s.41907-.85308.97055-2.34116c.18315-.42029.27473-.76789.27473-1.04279 0-.30216-.20804-.45323-.62413-.45324-.11746-.02271-.1762-.09314-.1762-.21128 0-.02044.002-.04089.00598-.06134 .04977-.13176.16424-.19765.34342-.19765h.93472c.21301,0 .42007-.03976.62115-.11928m-1.21245,2.86937c0,.07952.06172.11928.18516.11928h.37628c.12939,0 .1941-.05453.1941-.16358v-.00681l-.12542-.48732c-.07168-.24308-.14136-.36463-.20904-.36463h-.00598c-.08959,0-.17619.12836-.25981.38508l-.15529.51798m5.24395-1.29155 .00299,2.60696c0,.19311.09955.29876.29863.31693 .17718.02045.26578.09996.26578.23855 0,.01135-.001.02613-.00299.0443-.00597.11359-.08062.17039-.22397.17039h-2.09937c-.10352,0-.15926-.04885-.16723-.14654v-.02385c0-.12495.08163-.20447.24487-.23855 .20706-.04771.31456-.14085.32253-.27944l-.00597-3.34305c-1e-005-.19311-.09557-.31238-.28669-.35782-.1752-.0159-.2628-.09314-.2628-.23173 0-.01136.002-.02612.00597-.04431 .00598-.09541.08163-.14311.22696-.14312h.45393c.29862,1e-005 .55246.06816.7615.20447 .21899.15222.44297.38962.67192.71223 .20307.32942.41011.63499.62115.9167l.77942-1.27112c.18914-.37485.56342-.56227 1.12286-.56228h.51065c.13339,1e-005 .20605.05112.218.15335v.02386c-1e-005,.12495-.06172.20447-.18515.23854-.20904.09315-.31655.20902-.32252.34759l.00896,3.2749c0,.19311.09556.29876.28668.31693 .1732.02045.25981.09996.25981.23855 0,.01135-.00199.02613-.00597.0443-.00598.11359-.08163.17039-.22696.17039h-2.02172c-.15928,0-.23891-.06361-.23891-.19084 .01593-.17039.11547-.26694.29863-.28966s.27872-.11018.28668-.26241l.00299-2.78076-.51961.87921c.03782.14086.13637.27718.29564.40894 .06171.06589.09257.12836.09257.18743 0,.03408-.00995.06929-.02986.10564-.03783.05907-.0886.0886-.1523.0886-.03783,0-.07964-.00908-.12542-.02726-.25284-.14085-.64007-.63953-1.16168-1.49602m-1.107,5.17969c-.0309.02359-.5178-.3323-.55666-.33137s-.50838.37943-.54037.35733 .15603-.59514.14315-.63182-.51797-.36624-.50684-.40349 .61424-.03552.64514-.0591 .18826-.6058.22712-.60672 .22359.5732.25556.59529 .63433-.00814.64721.02853-.47605.38977-.48718.42701 .20377.60076.17287.62434z" fill="#333" fill-rule="evenodd"/>
          </g>
         </g>
        </g>
       </g>
      </g>
     </g>
    </g>
   </g>
  </g>
 </g>
</svg>
