<?xml version="1.0" encoding="UTF-8" standalone="no"?>
<!-- Created with Inkscape (http://www.inkscape.org/) -->

<svg
   width="318.24341"
   height="69.444214"
   viewBox="0 0 84.201902 18.373782"
   version="1.1"
   id="svg1"
   inkscape:version="1.3 (0e150ed6c4, 2023-07-21)"
   sodipodi:docname="model-1.svg"
   xml:space="preserve"
   xmlns:inkscape="http://www.inkscape.org/namespaces/inkscape"
   xmlns:sodipodi="http://sodipodi.sourceforge.net/DTD/sodipodi-0.dtd"
   xmlns="http://www.w3.org/2000/svg"
   xmlns:svg="http://www.w3.org/2000/svg"><sodipodi:namedview
     id="namedview1"
     pagecolor="#d1d1d1"
     bordercolor="#000000"
     borderopacity="0.25"
     inkscape:showpageshadow="2"
     inkscape:pageopacity="0.0"
     inkscape:pagecheckerboard="0"
     inkscape:deskcolor="#d1d1d1"
     inkscape:document-units="mm"
     showgrid="true"
     inkscape:zoom="1.5190266"
     inkscape:cx="2.6332652"
     inkscape:cy="-109.60967"
     inkscape:window-width="1920"
     inkscape:window-height="1009"
     inkscape:window-x="-8"
     inkscape:window-y="-8"
     inkscape:window-maximized="1"
     inkscape:current-layer="g4"><inkscape:grid
       id="grid1"
       units="mm"
       originx="97.698071"
       originy="238.84822"
       spacingx="0.99999997"
       spacingy="0.99999999"
       empcolor="#0099e5"
       empopacity="0.30196078"
       color="#0099e5"
       opacity="0.14901961"
       empspacing="5"
       dotted="false"
       gridanglex="30"
       gridanglez="30"
       visible="true" /></sodipodi:namedview><defs
     id="defs1" /><g
     inkscape:groupmode="layer"
     id="layer4"
     inkscape:label="model-3"
     transform="translate(25.849281,63.195259)"><g
       id="g65"><text
         xml:space="preserve"
         style="font-style:normal;font-variant:normal;font-weight:normal;font-stretch:normal;font-size:14.5058px;font-family:'Agency FB';-inkscape-font-specification:'Agency FB, Normal';font-variant-ligatures:normal;font-variant-caps:normal;font-variant-numeric:normal;font-variant-east-asian:normal;text-align:center;text-anchor:middle;fill:#a60000;fill-opacity:1;stroke-width:1.47115"
         x="66.057503"
         y="-8.5653439"
         id="text1"
         inkscape:export-filename="model.png"
         inkscape:export-xdpi="96"
         inkscape:export-ydpi="96"
         transform="translate(-19.01629,-41.997188)"><tspan
           sodipodi:role="line"
           id="tspan1"
           style="font-style:normal;font-variant:normal;font-weight:normal;font-stretch:normal;font-size:14.5058px;font-family:'Agency FB';-inkscape-font-specification:'Agency FB, Normal';font-variant-ligatures:normal;font-variant-caps:normal;font-variant-numeric:normal;font-variant-east-asian:normal;fill:#a60000;fill-opacity:1;stroke-width:1.47115"
           x="66.057503"
           y="-8.5653439"><tspan
             style="font-style:normal;font-variant:normal;font-weight:normal;font-stretch:normal;font-size:14.5058px;font-family:'Agency FB';-inkscape-font-specification:'Agency FB, Normal';font-variant-ligatures:normal;font-variant-caps:normal;font-variant-numeric:normal;font-variant-east-asian:normal;fill:#a60000;fill-opacity:1;stroke-width:1.47115"
             id="tspan2">aram</tspan></tspan></text><text
         xml:space="preserve"
         style="font-style:normal;font-variant:normal;font-weight:normal;font-stretch:normal;font-size:14.5058px;font-family:'Agency FB';-inkscape-font-specification:'Agency FB, Normal';font-variant-ligatures:normal;font-variant-caps:normal;font-variant-numeric:normal;font-variant-east-asian:normal;text-align:center;text-anchor:middle;fill:#006f00;fill-opacity:1;stroke-width:1.47115"
         x="14.648023"
         y="-8.799078"
         id="text56"
         transform="translate(-19.01629,-41.997188)"><tspan
           sodipodi:role="line"
           id="tspan56"
           style="font-style:normal;font-variant:normal;font-weight:normal;font-stretch:normal;font-size:14.5058px;font-family:'Agency FB';-inkscape-font-specification:'Agency FB, Normal';font-variant-ligatures:normal;font-variant-caps:normal;font-variant-numeric:normal;font-variant-east-asian:normal;fill:#006f00;fill-opacity:1;stroke-width:1.47115"
           x="14.648023"
           y="-8.799078">aggat</tspan></text><text
         xml:space="preserve"
         style="font-style:normal;font-variant:normal;font-weight:normal;font-stretch:normal;font-size:17.7159px;font-family:'Bodoni MT';-inkscape-font-specification:'Bodoni MT, Normal';font-variant-ligatures:normal;font-variant-caps:normal;font-variant-numeric:normal;font-variant-east-asian:normal;text-align:center;text-anchor:middle;opacity:1;fill:#006f00;fill-opacity:1;stroke:none;stroke-width:0.575232;stroke-dasharray:none;stroke-opacity:1"
         x="-1.5865591"
         y="-8.8569593"
         id="text57"
         transform="translate(-19.01629,-41.997188)"><tspan
           sodipodi:role="line"
           id="tspan57"
           style="font-style:normal;font-variant:normal;font-weight:normal;font-stretch:normal;font-size:17.7159px;font-family:'Bodoni MT';-inkscape-font-specification:'Bodoni MT, Normal';font-variant-ligatures:normal;font-variant-caps:normal;font-variant-numeric:normal;font-variant-east-asian:normal;fill:#006f00;fill-opacity:1;stroke:none;stroke-width:0.57523;stroke-opacity:1"
           x="-1.5865589"
           y="-8.8569593">T</tspan></text><text
         xml:space="preserve"
         style="font-style:normal;font-variant:normal;font-weight:normal;font-stretch:normal;font-size:16.6946px;font-family:'Bodoni MT';-inkscape-font-specification:'Bodoni MT, Normal';font-variant-ligatures:normal;font-variant-caps:normal;font-variant-numeric:normal;font-variant-east-asian:normal;text-align:center;text-anchor:middle;opacity:1;fill:#a60000;fill-opacity:1;stroke:none;stroke-width:0.542071;stroke-dasharray:none;stroke-opacity:1"
         x="50.118774"
         y="-8.662158"
         id="text58"
         transform="translate(-19.01629,-41.997188)"><tspan
           sodipodi:role="line"
           id="tspan58"
           style="font-style:normal;font-variant:normal;font-weight:normal;font-stretch:normal;font-size:16.6946px;font-family:'Bodoni MT';-inkscape-font-specification:'Bodoni MT, Normal';font-variant-ligatures:normal;font-variant-caps:normal;font-variant-numeric:normal;font-variant-east-asian:normal;fill:#a60000;fill-opacity:1;stroke:none;stroke-width:0.542069;stroke-opacity:1"
           x="50.118774"
           y="-8.662158">Y</tspan></text><g
         id="g56"
         transform="matrix(1.0209451,0,0,1.0209451,12.536484,-77.697122)"><circle
           style="fill:#cbaa12;fill-opacity:1;stroke:none;stroke-width:0.329702;stroke-dasharray:none;stroke-opacity:0.992157"
           id="circle65"
           cx="5.1787696"
           cy="23.20277"
           r="8.9984169" /><circle
           style="fill:#ffffff;fill-opacity:1;stroke:none;stroke-width:0.304698;stroke-dasharray:none;stroke-opacity:0.992157"
           id="path44"
           cx="5.1787696"
           cy="23.20277"
           r="8.3159924" /><g
           id="g48"
           transform="matrix(0.83620978,0,0,0.83620978,-17.832671,15.008967)"><path
             style="fill:#006f00;fill-opacity:1"
             d="m 19.05772,13.124881 c -0.275743,-0.06685 -0.517744,-0.312325 -0.57404,-0.582283 -0.05305,-0.254393 0.021,-0.514553 0.197931,-0.69537 0.16567,-0.16931 0.321481,-0.235747 0.552884,-0.235747 0.231403,0 0.387214,0.06644 0.552885,0.235747 0.291686,0.298096 0.287729,0.765499 -0.009,1.063002 -0.199717,0.200237 -0.460149,0.277808 -0.72066,0.214651 z m 1.874672,0.0015 c -0.128819,-0.05605 -0.222289,-0.197205 -0.223635,-0.337722 -9.64e-4,-0.100649 -0.002,-0.09737 0.297383,-0.921766 0.23585,-0.649403 0.244962,-0.678789 0.376089,-1.212882 0.07391,-0.301045 0.126093,-0.538682 0.115959,-0.528082 -0.01013,0.0106 -0.150024,0.20808 -0.310868,0.438844 -0.160844,0.230765 -0.300052,0.426083 -0.309351,0.43404 -0.0093,0.008 -0.03562,0.04672 -0.05849,0.08615 -0.08575,0.147784 -0.195135,0.215766 -0.347967,0.216245 -0.08515,2.67e-4 -0.113864,-0.0065 -0.180336,-0.04253 -0.140121,-0.07593 -0.212677,-0.208874 -0.199662,-0.365825 0.0052,-0.0631 0.0427,-0.150611 0.204434,-0.477558 0.127447,-0.257629 0.329279,-0.7119585 0.566279,-1.2747138 0.202539,-0.4809251 0.366233,-0.8764279 0.363766,-0.8788951 -0.0025,-0.00247 -0.151297,0.094785 -0.330734,0.2161155 -0.305967,0.2068877 -0.351122,0.2435361 -0.726388,0.5895353 -0.443208,0.4086436 -0.487431,0.4393745 -0.617492,0.429108 -0.14618,-0.011539 -0.244416,-0.1022535 -0.272798,-0.2519119 -0.01644,-0.086679 7.3e-4,-0.1620059 0.05235,-0.2296814 0.01958,-0.025665 0.217842,-0.2147906 0.440591,-0.4202783 0.436366,-0.4025514 0.370631,-0.3527912 1.249775,-0.9460652 0.439247,-0.2964186 0.438004,-0.2959533 0.788505,-0.2949352 0.261622,7.6e-4 0.454777,0.02471 0.754424,0.093542 0.210096,0.048261 0.503911,0.1431952 0.620036,0.2003385 0.234597,0.1154414 0.868168,0.4708551 0.900151,0.5049567 0.0539,0.057469 0.726833,1.1029387 0.746808,1.1602407 0.04026,0.1155014 0.0014,0.2529294 -0.09377,0.3314192 C 24.611103,9.748292 24.450443,9.741367 24.334086,9.626683 24.300496,9.593573 24.132534,9.348338 23.960843,9.0817159 L 23.64867,8.5969858 23.373981,8.4487785 C 23.127835,8.3159709 23.068514,8.2882313 23.068514,8.3059369 c 0,0.00295 -0.129458,0.3821934 -0.287684,0.8427607 -0.158226,0.4605672 -0.292518,0.8599554 -0.298427,0.8875294 -0.01166,0.05438 -1.036405,2.887363 -1.061141,2.933584 -0.02325,0.04344 -0.130038,0.134661 -0.184083,0.157242 -0.06173,0.02579 -0.244928,0.02541 -0.304787,-6.33e-4 z M 22.518015,7.2726056 C 22.339122,7.2459474 22.195151,7.1676312 22.063369,7.0252911 21.925463,6.8763365 21.862876,6.7136992 21.86374,6.5065398 c 2.84e-4,-0.068179 0.01064,-0.1569536 0.02323,-0.1992256 0.05573,-0.1870371 0.200351,-0.372613 0.36284,-0.4655803 0.09036,-0.051701 0.272744,-0.1019978 0.369853,-0.1019978 0.42657,0 0.781615,0.3550451 0.781615,0.7816145 0,0.097109 -0.0503,0.2794882 -0.101998,0.3698528 -0.09185,0.1605326 -0.281817,0.309618 -0.458346,0.3597042 -0.09537,0.027059 -0.227407,0.035931 -0.322919,0.021698 z"
             id="path47" /><path
             style="fill:#020300;fill-opacity:1"
             d="m 25.780199,10.482685 c -0.08274,-0.02762 -0.171237,-0.120659 -0.193591,-0.203527 -0.03582,-0.132801 0.01161,-0.265106 0.123376,-0.3441746 0.03456,-0.024445 0.355382,-0.2193583 0.712948,-0.4331409 0.357567,-0.2137825 0.665923,-0.4026995 0.685237,-0.4198156 0.03145,-0.02787 0.911299,-1.0141631 0.95993,-1.0760612 0.01719,-0.021875 -0.0014,-0.089052 -0.137755,-0.4981523 L 27.772724,7.0349457 27.344791,6.5162316 C 27.109428,6.2309388 26.89881,5.9697668 26.876752,5.9358493 l -0.04011,-0.061668 -0.0043,-0.7943114 -0.0043,-0.7943113 -0.03264,0.00692 c -0.01795,0.00381 -0.1357,0.017889 -0.261661,0.031294 -0.12596,0.013405 -0.231439,0.02662 -0.234397,0.029367 -0.003,0.00275 0.03978,0.271231 0.09497,0.5966298 0.05519,0.3253989 0.09601,0.5959729 0.09071,0.6012757 -0.01114,0.011137 -1.093393,0.1980706 -1.101249,0.1902145 -0.0075,-0.00746 -0.448234,-2.5957363 -0.442859,-2.600495 0.0095,-0.00845 1.105012,-0.1898186 1.109962,-0.183772 0.0029,0.00353 0.04584,0.2448376 0.09544,0.5362376 0.0496,0.2914 0.09373,0.5333662 0.09807,0.5377028 0.0043,0.00434 0.109448,-0.00355 0.233581,-0.017523 0.124133,-0.013974 0.279547,-0.031026 0.345364,-0.037892 0.0762,-0.00795 0.137745,-0.023478 0.169436,-0.04275 0.07423,-0.045143 0.160878,-0.053394 0.249967,-0.023803 0.06947,0.023074 0.103798,0.023565 0.418424,0.00599 0.443583,-0.024784 1.67513,-0.024784 2.118713,0 0.314626,0.017579 0.348956,0.017088 0.418424,-0.00599 0.08829,-0.029325 0.17565,-0.021392 0.247832,0.022505 0.05324,0.032379 0.04811,0.03151 0.44438,0.075243 0.209462,0.023117 0.288883,0.027106 0.296433,0.014889 0.0057,-0.00918 0.04861,-0.2443767 0.09542,-0.5226632 0.0468,-0.2782864 0.08839,-0.517611 0.09242,-0.5318324 0.0046,-0.016399 0.02181,-0.02584 0.04695,-0.02581 0.04096,4.83e-5 1.068021,0.172654 1.073029,0.1803308 0.0042,0.00643 -0.438064,2.5889645 -0.444641,2.5964422 -0.0053,0.00598 -1.100688,-0.1752322 -1.110241,-0.1836606 -0.0024,-0.00211 0.03916,-0.2574157 0.09235,-0.5673455 0.102181,-0.595479 0.105662,-0.6221441 0.08121,-0.6221441 -0.02391,0 -0.415221,-0.043679 -0.461027,-0.05146 l -0.04063,-0.0069 v 0.766993 c 0,0.5113513 -0.0053,0.7808567 -0.01588,0.8085875 -0.0087,0.022877 -0.01813,0.059136 -0.02088,0.080574 -0.0027,0.021439 -0.172947,0.283724 -0.378222,0.5828555 l -0.373228,0.5438756 -0.09322,0.2958081 c -0.05127,0.1626945 -0.08835,0.2998848 -0.0824,0.3048673 0.006,0.00498 0.23356,0.073985 0.505798,0.1533387 0.283855,0.08274 0.531084,0.1633911 0.579628,0.1890863 0.122467,0.064824 0.188696,0.1657141 0.188696,0.2874501 0,0.039893 -0.287883,1.8079087 -0.318764,1.9576697 -0.01424,0.06908 -0.09511,0.174214 -0.159547,0.207432 -0.07976,0.04112 -0.223921,0.04371 -0.284684,0.0051 -0.121274,-0.07703 -0.167859,-0.155824 -0.167859,-0.283925 0,-0.044 0.05652,-0.4186114 0.125591,-0.8324806 0.06908,-0.4138691 0.125592,-0.7632177 0.125592,-0.77633 0,-0.021595 -0.04071,-0.023009 -0.432183,-0.015006 -0.2377,0.00486 -0.553475,0.012743 -0.701721,0.017521 l -0.26954,0.00869 -0.516784,0.3805376 c -0.284231,0.2092958 -0.555566,0.4163569 -0.602966,0.4601359 -0.06018,0.05558 -0.328939,0.2249569 -0.890692,0.5613243 -0.442481,0.2649498 -0.827112,0.4893518 -0.854735,0.4986718 -0.06549,0.0221 -0.112239,0.02049 -0.193571,-0.0067 z m 3.723418,-4.4511308 0.465428,-0.3798091 0.0038,-0.7032034 0.0038,-0.7032034 -0.09988,-0.00981 c -0.361346,-0.035485 -1.951199,-0.035495 -2.312503,-1.4e-5 l -0.09973,0.00979 v 0.6996802 0.6996801 l 0.151448,0.1242888 c 0.0833,0.068359 0.294402,0.240871 0.469122,0.3833604 l 0.317672,0.2590717 0.317673,-1.41e-5 0.317672,-1.41e-5 z M 28.5506,6.0685402 C 28.130984,5.9295769 27.96561,5.4694534 28.20525,5.1076633 c 0.08848,-0.1335829 0.244176,-0.232097 0.411385,-0.2603005 0.379626,-0.064032 0.724265,0.2229422 0.726771,0.6051692 0.0017,0.260885 -0.130635,0.4695679 -0.368406,0.5809017 -0.08456,0.039593 -0.119129,0.047123 -0.232319,0.050597 -0.0817,0.00251 -0.155769,-0.00347 -0.192081,-0.01549 z"
             id="path48" /><path
             style="fill:#a60000;fill-opacity:1;stroke-width:0.425143"
             d="m 24.240067,16.203165 c -0.0147,-0.0036 -0.09892,-0.01606 -0.187154,-0.02764 -0.422123,-0.05542 -0.828371,-0.197296 -1.181142,-0.412492 -0.374874,-0.228678 -0.764384,-0.628217 -0.95798,-0.982645 l -0.06601,-0.120836 0.148973,0.100334 c 0.201648,0.135812 0.636775,0.346056 0.897586,0.433694 0.576724,0.193791 1.196289,0.284491 1.800236,0.263542 0.576221,-0.01999 0.904117,-0.0785 2.009536,-0.358609 0.954571,-0.241883 1.28824,-0.297497 1.787002,-0.297844 0.441383,-3.08e-4 0.835663,0.07397 1.247618,0.235036 0.34295,0.134087 0.774471,0.375429 1.029702,0.575896 l 0.111112,0.08727 -0.0713,-0.01101 c -0.65877,-0.101741 -1.376398,-0.153442 -2.133525,-0.153706 -0.731094,-2.56e-4 -0.968118,0.03789 -1.650748,0.265654 -0.698866,0.233182 -0.989426,0.303145 -1.527315,0.367757 -0.209003,0.02511 -1.186674,0.0528 -1.2566,0.0356 z m -0.138945,-1.461534 c -0.06172,-0.01411 -0.141923,-0.04413 -0.178241,-0.06671 l -0.06603,-0.04106 0.124769,-0.01977 0.12477,-0.01977 -0.151505,-0.007 -0.151506,-0.007 0.133681,-0.07828 c 0.481121,-0.281663 1.973643,-1.186063 2.001802,-1.212942 0.0079,-0.0075 -0.0785,-0.221431 -0.192067,-0.475249 -0.242037,-0.540951 -0.261539,-0.566746 -0.419457,-0.554824 -0.07118,0.0054 -0.307947,0.08676 -0.86447,0.297147 -1.174734,0.444098 -1.136757,0.431555 -1.286889,0.425019 -0.21067,-0.0092 -0.292602,-0.106093 -0.229457,-0.271435 0.0622,-0.162874 0.261747,-0.292334 1.23116,-0.798744 0.968642,-0.506008 1.353425,-0.692836 1.448087,-0.703105 0.219683,-0.02384 0.31997,0.06994 0.644868,0.602954 0.121784,0.199792 0.4537,0.728208 0.737593,1.174256 0.283893,0.446049 0.531154,0.845751 0.549469,0.888228 0.01832,0.04248 0.0333,0.108848 0.0333,0.14749 0,0.08735 -0.01894,0.09578 -0.249537,0.111116 -0.242324,0.01612 -0.60064,0.09421 -1.283336,0.279704 -0.723996,0.196715 -0.964773,0.256502 -1.220953,0.303174 -0.264548,0.0482 -0.590499,0.06005 -0.736051,0.02679 z M 28.6248,13.705822 c -0.183417,-0.03972 -0.331309,-0.122252 -0.474313,-0.264697 -0.199705,-0.198922 -0.292125,-0.418274 -0.292125,-0.693335 0,-0.273038 0.09203,-0.496411 0.284925,-0.69157 0.189818,-0.192046 0.420494,-0.287372 0.695403,-0.287372 0.465035,0 0.845902,0.303981 0.954442,0.761769 0.05257,0.221745 0.012,0.500604 -0.102062,0.701427 -0.08489,0.149466 -0.251269,0.307531 -0.405403,0.385153 -0.220108,0.110844 -0.428942,0.138849 -0.660867,0.08863 z"
             id="path45" /><path
             id="path46"
             style="fill:#cbaa12;fill-opacity:1;stroke-width:0.117625"
             d="m 35.596849,5.4886394 c -0.111378,4.275e-4 -0.153359,0.012337 -0.24727,0.070024 -0.06488,0.039852 -0.06955,0.040489 -0.180042,0.024801 -0.09261,-0.013146 -0.133253,-0.00516 -0.192811,0.037993 -0.05342,0.038698 -0.09461,0.1141681 -0.182532,0.3344357 -0.08059,0.2018888 -0.101762,0.2318349 -0.193235,0.2735901 -0.144608,0.06601 -0.229551,0.087069 -0.40288,0.099808 -0.133006,0.00978 -0.192867,0.026735 -0.275107,0.077926 l -0.04579,0.028507 0.07622,0.00693 c 0.04194,0.00379 0.123854,0.015625 0.18205,0.026321 0.118392,0.021753 0.206904,0.024588 0.2663,0.00857 0.02192,-0.00591 0.08354,-0.032679 0.136948,-0.059508 0.05342,-0.026826 0.09709,-0.045464 0.09707,-0.041453 -1.6e-5,0.00401 -0.009,0.021903 -0.0198,0.039754 -0.04241,0.069578 -0.13338,0.1017018 -0.313766,0.1108095 l -0.129471,0.0065 0.101812,0.019453 c 0.137528,0.026309 0.123458,0.0321 -0.145337,0.05969 -0.148,0.015194 -0.213961,0.035497 -0.270184,0.083031 -0.02043,0.017278 -0.01153,0.015321 0.04975,-0.010696 0.07323,-0.031078 0.07862,-0.031824 0.273896,-0.037746 0.185138,-0.00562 0.204321,-0.00797 0.272256,-0.033494 0.04017,-0.015103 0.0752,-0.025277 0.0778,-0.022672 0.0029,0.00258 -0.03925,0.028307 -0.093,0.057136 -0.25294,0.1356554 -0.277821,0.1621763 -0.429436,0.4575233 -0.06934,0.1350673 -0.07567,0.152799 -0.09768,0.2738942 -0.05222,0.2871535 -0.05279,0.3404523 -0.0052,0.4882193 l 0.01922,0.059508 0.0011,-0.059751 c 0.0011,-0.049911 0.0029,-0.05651 0.01251,-0.039875 0.03397,0.060094 0.0796,0.1260376 0.08413,0.1215079 0.0029,-0.00287 -0.0069,-0.049331 -0.02157,-0.1032115 -0.02726,-0.099712 -0.02966,-0.191486 -0.0057,-0.2154804 0.01348,-0.013462 0.02365,0.014558 0.05021,0.1381625 0.01171,0.054398 0.03753,0.1336384 0.05732,0.176092 0.03305,0.070833 0.03506,0.080254 0.02462,0.1145181 -0.0062,0.020537 -0.02932,0.06088 -0.05124,0.089657 -0.02192,0.028777 -0.05354,0.079474 -0.07027,0.1126331 -0.06068,0.1202024 -0.114942,0.1933445 -0.18302,0.2468454 -0.03655,0.028737 -0.07387,0.067828 -0.08297,0.086921 -0.01377,0.028892 -0.02542,0.037235 -0.06985,0.050146 -0.107752,0.031325 -0.30828,0.2051309 -0.405978,0.3518806 -0.104562,0.1570624 -0.213961,0.4159201 -0.213961,0.5062115 0,0.02181 -0.01073,0.063703 -0.02381,0.093121 -0.01314,0.02942 -0.04057,0.091605 -0.06103,0.1381631 -0.02043,0.04656 -0.04464,0.093594 -0.05371,0.1045491 -0.0091,0.010954 -0.06555,0.1197864 -0.12546,0.2418001 -0.09564,0.194803 -0.107391,0.224233 -0.09646,0.241739 0.01085,0.01738 0.0067,0.02951 -0.0326,0.09422 -0.02479,0.04083 -0.0451,0.07793 -0.0451,0.08242 0,0.01993 -0.121989,0.211841 -0.16521,0.259915 -0.02628,0.02922 -0.06823,0.08036 -0.09318,0.113606 l -0.04533,0.06042 -0.159373,0.05166 c -0.179262,0.05807 -0.232094,0.08037 -0.289091,0.121994 -0.05675,0.04146 -0.339513,0.324539 -0.35717,0.357594 -0.01629,0.03048 -0.269747,0.303606 -0.289212,0.311641 -0.0066,0.0027 -0.06715,0.06212 -0.134451,0.131902 -0.145631,0.151015 -0.154995,0.155354 -0.296327,0.138163 -0.186912,-0.02273 -0.241907,-0.01063 -0.293711,0.06462 -0.05469,0.07947 -0.07075,0.151722 -0.0772,0.347503 l -0.0059,0.179254 -0.05377,0.09962 c -0.09852,0.182332 -0.102352,0.191394 -0.107585,0.256633 -0.0064,0.07938 0.02381,0.205588 0.06747,0.281856 0.04803,0.08398 0.118723,0.173128 0.162173,0.2046 v 6.1e-5 c 0.05589,0.04048 0.112848,0.03976 0.160406,-0.002 0.06912,-0.06068 0.117117,-0.174779 0.159563,-0.379477 0.03799,-0.183135 0.128961,-0.355422 0.213105,-0.403426 0.07254,-0.04138 0.08109,-0.05159 0.08115,-0.09677 2.8e-5,-0.02481 0.009,-0.0555 0.02284,-0.07841 0.02634,-0.04345 0.275841,-0.282 0.329998,-0.315471 0.02387,-0.01473 0.03839,-0.03239 0.04212,-0.05105 0.004,-0.01979 0.01831,-0.03596 0.04688,-0.05282 0.02261,-0.01337 0.07922,-0.0516 0.125764,-0.08492 0.04654,-0.03333 0.09206,-0.0606 0.101205,-0.0606 0.0091,0 0.07187,-0.03663 0.139439,-0.08139 0.222573,-0.147467 0.35939,-0.227334 0.38932,-0.227334 0.02846,0 0.274832,-0.106772 0.415705,-0.180165 0.147805,-0.077 0.377012,-0.275356 0.364342,-0.315288 -0.0052,-0.01636 0.0237,-0.05049 0.153239,-0.180834 0.08781,-0.08836 0.159678,-0.167255 0.159678,-0.175362 0,-0.0081 0.0085,-0.01477 0.01888,-0.01477 0.02513,0 0.09981,-0.05109 0.224594,-0.153723 0.132394,-0.108877 0.200467,-0.184952 0.25918,-0.289557 0.02611,-0.04648 0.04918,-0.08449 0.05136,-0.08449 0.0023,0 0.02892,0.02038 0.05951,0.04529 0.03059,0.0249 0.114971,0.08501 0.187582,0.133604 0.136771,0.09154 0.172852,0.126213 0.247874,0.238031 0.05886,0.08773 0.07146,0.09734 0.137493,0.105279 0.05136,0.0062 0.06391,0.01319 0.144425,0.0806 0.06162,0.05159 0.09637,0.07389 0.115373,0.0741 0.0206,2.15e-4 0.02869,0.0063 0.03346,0.02516 l 0.0062,0.02487 0.0079,-0.0066 0.05988,0.02991 c 0.0066,0.0076 0.01676,0.01578 0.03449,0.02438 0.02966,0.01442 0.05055,0.03317 0.06072,0.05446 0.01538,0.0322 0.01509,0.03324 -0.03942,0.129532 -0.03024,0.05339 -0.05297,0.09707 -0.05044,0.09707 0.0023,0 -0.0089,0.01861 -0.02542,0.04139 -0.02204,0.03041 -0.02972,0.0499 -0.02129,0.04869 l -0.02026,0.03647 c -0.01,0.0084 -0.02032,0.02556 -0.03621,0.06017 -0.01699,0.03697 -0.03793,0.09411 -0.04654,0.126978 -0.02048,0.07832 -0.03529,0.224833 -0.02473,0.244596 0.01664,0.0311 -0.05032,0.263114 -0.08461,0.293163 -0.02249,0.01971 -0.03954,0.06122 -0.116704,0.283802 -0.05492,0.158485 -0.103305,0.248973 -0.133115,0.248973 -0.01871,0 -0.02548,0.0087 -0.03695,0.04735 -0.01509,0.05092 -0.115367,0.214437 -0.166363,0.271342 -0.06729,0.07508 -0.06746,0.09903 -0.0011,0.170986 0.09254,0.100814 0.172307,0.133783 0.391449,0.161626 0.09344,0.01187 0.162225,0.02988 0.34738,0.09112 0.208641,0.06901 0.236707,0.07596 0.291765,0.07215 0.114438,-0.0079 0.283032,-0.105165 0.325076,-0.187581 0.02387,-0.04673 0.02404,-0.05213 0.0034,-0.09561 -0.02164,-0.04562 -0.05716,-0.0623 -0.188064,-0.08838 -0.106254,-0.02117 -0.215309,-0.06468 -0.257238,-0.102603 -0.03093,-0.028 -0.07004,-0.102908 -0.07574,-0.145214 -0.0057,-0.04127 -0.01876,-0.05327 -0.08364,-0.07598 l -0.02841,-0.0099 0.0034,-0.08327 c 0.0034,-0.08075 0.0057,-0.08759 0.0758,-0.226422 0.03977,-0.07874 0.07227,-0.148498 0.07222,-0.155 -1.67e-4,-0.01734 0.160423,-0.301855 0.170373,-0.301855 0.01182,0 0.04597,-0.06998 0.126797,-0.25967 0.101549,-0.238367 0.114466,-0.264036 0.149229,-0.296507 0.02531,-0.02365 0.03535,-0.04194 0.02852,-0.04832 l 0.01681,-0.03082 c 0.0011,0.0013 0.0023,0.0011 0.0034,-0.0021 0.0023,-0.0056 0.0062,-0.01398 0.0098,-0.02182 l 0.0011,-0.0023 0.0011,-0.0033 c 5.74e-4,-0.0017 0.0018,-0.0034 0.0023,-0.005 5.75e-4,-0.0014 2.76e-4,-0.0017 5.75e-4,-0.0029 l 0.02238,-0.05878 0.01486,-0.03903 c 0.0034,-0.0082 0.0057,-0.0095 0.01022,-0.02134 l 0.02766,-0.06972 -0.0029,-4.25e-4 0.0066,-0.01709 0.0029,0.0027 0.0288,-0.08723 c 0.01171,-0.03545 0.01756,-0.06478 0.02066,-0.09379 l 0.0046,-0.01671 -0.0018,-0.02115 c -0.0011,-0.04657 -0.01274,-0.09881 -0.03684,-0.179679 -0.04373,-0.146785 -0.04866,-0.157715 -0.07896,-0.175605 -0.021,-0.01243 -0.03529,-0.03918 -0.0651,-0.121813 -0.04792,-0.132895 -0.0532,-0.143353 -0.108073,-0.216392 -0.02473,-0.03293 -0.05457,-0.08426 -0.06631,-0.114092 -0.01157,-0.02983 -0.04031,-0.08342 -0.06369,-0.119017 -0.116641,-0.1775708 -0.13754,-0.2085044 -0.178338,-0.2638661 -0.06101,-0.082779 -0.11368,-0.1852118 -0.135307,-0.2632567 -0.01004,-0.036226 -0.03455,-0.098239 -0.05445,-0.137798 -0.03759,-0.074584 -0.06548,-0.1721947 -0.06571,-0.2297644 -1.09e-4,-0.02534 0.01056,-0.045441 0.04493,-0.084612 0.0617,-0.070377 0.08249,-0.1178262 0.09488,-0.2163313 0.01842,-0.1463348 0.03713,-0.1636808 0.154697,-0.1436332 l 0.07878,0.013433 0.06097,0.066741 c 0.0794,0.086912 0.119022,0.1536063 0.143329,0.2413137 0.04941,0.1783151 0.175842,0.355444 0.308779,0.4326632 0.183744,0.1067244 0.432254,0.093463 0.621524,-0.033127 0.129546,-0.086646 0.205909,-0.1905718 0.240706,-0.3277485 0.03041,-0.1199665 0.0029,-0.3413124 -0.05799,-0.4668846 -0.03673,-0.075746 -0.159362,-0.1915485 -0.24672,-0.2329864 -0.146141,-0.069316 -0.154582,-0.070922 -0.383371,-0.073913 -0.239077,-0.0031 -0.297652,0.00716 -0.453083,0.079506 -0.07901,0.036776 -0.08876,0.038968 -0.148677,0.033367 -0.03529,-0.00327 -0.06793,-0.00982 -0.07258,-0.014466 -0.0046,-0.00465 0.01962,-0.032719 0.05394,-0.062426 0.179382,-0.1554793 0.298576,-0.2980687 0.330911,-0.3957664 0.02496,-0.075348 0.04464,-0.2326857 0.05055,-0.4043978 0.0029,-0.08805 0.01027,-0.1914842 0.01601,-0.2298258 0.01457,-0.097407 -5.74e-4,-0.1853553 -0.04074,-0.2351744 -0.01658,-0.020634 -0.03013,-0.04069 -0.03013,-0.044557 0,-0.00385 0.01665,-0.027669 0.03702,-0.052884 0.132031,-0.163449 0.191823,-0.2150712 0.290061,-0.2504926 0.06476,-0.023348 0.121087,-0.068297 0.121087,-0.096647 0,-0.00877 -0.0052,-0.031004 -0.0121,-0.049417 -0.0099,-0.027331 -0.0095,-0.037528 0.0018,-0.055494 0.0077,-0.012102 0.0152,-0.037723 0.01664,-0.056894 0.0011,-0.019172 0.0072,-0.066207 0.01274,-0.1045485 0.0087,-0.059108 0.01481,-0.073471 0.04034,-0.094581 0.03787,-0.031325 0.03764,-0.045848 -0.0018,-0.093304 -0.03483,-0.042251 -0.0513,-0.1066206 -0.03695,-0.1443626 0.0062,-0.016102 0.0057,-0.035256 -0.0018,-0.055317 -0.0059,-0.016882 -0.01704,-0.065589 -0.02456,-0.1081958 -0.01434,-0.081258 -0.06425,-0.1875011 -0.111777,-0.237882 -0.0701,-0.07431 -0.244505,-0.132247 -0.396373,-0.1316588 z m -0.501715,0.2287309 c 0.0092,-0.0043 0.01911,1.86e-4 0.0315,0.012584 l 0.02071,0.020727 -0.02669,0.054524 c -0.01469,0.03 -0.02674,0.059054 -0.02674,0.064552 0,0.021891 -0.01761,0.019051 -0.02841,-0.00453 -0.01521,-0.033339 -0.0144,-0.067431 0.0023,-0.1078923 0.0095,-0.022609 0.0179,-0.03564 0.02708,-0.039938 z m -0.0087,0.6716673 0.04608,0.03805 c 0.02536,0.020944 0.0651,0.048643 0.08838,0.061514 0.04912,0.027159 0.0548,0.053974 0.02135,0.1009628 -0.02008,0.028186 -0.02336,0.029173 -0.07391,0.022855 -0.07001,-0.00875 -0.139484,0.014305 -0.184667,0.061271 -0.03788,0.039387 -0.07696,0.065357 -0.06364,0.042308 0.004,-0.00739 0.02227,-0.033643 0.03999,-0.058291 0.04092,-0.056957 0.112314,-0.198261 0.120291,-0.2381531 z" /></g></g></g></g></svg>
