<?xml version="1.0" ?><svg viewBox="0 0 24 24" xmlns="http://www.w3.org/2000/svg"><g data-name="20. Add" id="_20._Add"><path d="M21.982,12.09A.9.9,0,0,0,22,12V4a4,4,0,0,0-4-4H4A4,4,0,0,0,0,4V18a4,4,0,0,0,4,4h8a.9.9,0,0,0,.09-.018,6.995,6.995,0,0,0,9.892-9.892ZM2,18V4A2,2,0,0,1,4,2H18a2,2,0,0,1,2,2v6.685A6.984,6.984,0,0,0,10.685,20H4A2,2,0,0,1,2,18Zm15,4a5,5,0,1,1,5-5A5.006,5.006,0,0,1,17,22Z"/><path d="M19,16H18V15a1,1,0,0,0-2,0v1H15a1,1,0,0,0,0,2h1v1a1,1,0,0,0,2,0V18h1a1,1,0,0,0,0-2Z"/></g></svg>