<?xml version="1.0" encoding="UTF-8" standalone="no"?>
<!-- Created with Inkscape (http://www.inkscape.org/) -->

<svg
   version="1.1"
   id="svg1"
   width="729.31403"
   height="483.20459"
   viewBox="0 0 729.31402 483.20459"
   sodipodi:docname="sports-6215090.jpg"
   xml:space="preserve"
   xmlns:inkscape="http://www.inkscape.org/namespaces/inkscape"
   xmlns:sodipodi="http://sodipodi.sourceforge.net/DTD/sodipodi-0.dtd"
   xmlns:xlink="http://www.w3.org/1999/xlink"
   xmlns="http://www.w3.org/2000/svg"
   xmlns:svg="http://www.w3.org/2000/svg"><defs
     id="defs1"><linearGradient
       id="linearGradient102"
       inkscape:collect="always"><stop
         style="stop-color:#9e3232;stop-opacity:1;"
         offset="0"
         id="stop103" /><stop
         style="stop-color:#524f32;stop-opacity:0;"
         offset="1"
         id="stop104" /></linearGradient><linearGradient
       id="linearGradient101"
       inkscape:collect="always"><stop
         style="stop-color:#1d5732;stop-opacity:1;"
         offset="0"
         id="stop101" /><stop
         style="stop-color:#1d5732;stop-opacity:0;"
         offset="1"
         id="stop102" /></linearGradient><radialGradient
       inkscape:collect="always"
       xlink:href="#linearGradient101"
       id="radialGradient102"
       cx="-432.82379"
       cy="1019.5955"
       fx="-432.82379"
       fy="1019.5955"
       r="63.773411"
       gradientTransform="matrix(1,0,0,1.1369962,0,-139.68068)"
       gradientUnits="userSpaceOnUse" /><radialGradient
       inkscape:collect="always"
       xlink:href="#linearGradient102"
       id="radialGradient104"
       cx="16.744064"
       cy="979.27484"
       fx="16.744064"
       fy="979.27484"
       r="78.672562"
       gradientTransform="matrix(1,0,0,1.0124793,0,-12.220701)"
       gradientUnits="userSpaceOnUse" /></defs><sodipodi:namedview
     id="namedview1"
     pagecolor="#ffffff"
     bordercolor="#000000"
     borderopacity="0.25"
     inkscape:showpageshadow="2"
     inkscape:pageopacity="0.0"
     inkscape:pagecheckerboard="0"
     inkscape:deskcolor="#d1d1d1" /><g
     inkscape:groupmode="layer"
     inkscape:label="Image"
     id="g1"
     transform="translate(633.89743,-812.16313)"><g
       id="g10"
       transform="translate(-850.45587,-60.326454)"><path
         id="path98"
         style="fill:#000000;fill-opacity:1"
         d="m 667.19125,872.61497 c -0.41432,0.16718 -0.0767,0.30468 0.75196,0.30468 0.8286,0 1.16823,-0.1375 0.7539,-0.30468 -0.41432,-0.16718 -1.09153,-0.16718 -1.50586,0 z m 0.3125,0.58398 c -0.58636,0.1528 -0.25413,0.28848 0.74024,0.30078 0.99441,0.0123 1.47442,-0.1142 1.0664,-0.27929 -0.40801,-0.16505 -1.22028,-0.17428 -1.80664,-0.0215 z m 0,0.60352 c -0.58636,0.15279 -0.25413,0.28653 0.74024,0.29883 0.99441,0.0123 1.47442,-0.11227 1.0664,-0.27735 -0.40801,-0.16505 -1.22028,-0.17428 -1.80664,-0.0215 z m -0.16406,0.27929 -1.45313,0.95313 -1.45312,0.95117 -0.77148,5.44531 c -0.42382,2.99446 -1.02074,5.44336 -1.32618,5.44336 -0.30543,0 -2.62482,-2.14074 -5.15625,-4.75781 l -4.60351,-4.75781 -2.33399,-0.9668 c -1.28344,-0.53179 -3.623,-0.96875 -5.19922,-0.96875 h -2.86523 l -0.74414,0.89649 c -0.93934,1.13183 -0.41814,3.27474 1.25781,5.16992 1.24969,1.41317 4.76172,8.53845 4.76172,9.66015 0,1.20851 -2.32326,0.42831 -4.50391,-1.51172 -4.18406,-3.72237 -11.12528,-6.3828 -23.21679,-8.90039 l -5.72656,-1.19336 -5.1211,0.28516 -5.12305,0.28516 -2.89257,1.26172 c -7.24192,3.15993 -14.81503,10.50812 -23.87891,23.16796 -2.09302,2.9234 -4.38335,5.52884 -5.08984,5.79102 -0.21786,0.0808 -2.81408,0.17713 -3.83399,0.27539 -0.0212,-0.011 0.0163,-0.018 -0.0117,-0.0293 -0.41433,-0.16718 -1.09349,-0.16718 -1.50781,0 -0.13757,0.0555 -0.0775,0.0977 -0.0586,0.14258 -0.25349,0.0199 -0.48676,0.0349 -0.76172,0.0547 0.10269,-0.0537 0.10863,-0.12033 -0.082,-0.19727 -0.41432,-0.16718 -1.09349,-0.16718 -1.50782,0 -0.35054,0.14146 -0.0742,0.24386 0.49415,0.27735 -2.0498,0.13239 -2.61728,0.27594 -5.16407,0.37109 l -11.14843,0.41602 -3.31641,0.96484 c -8.13783,2.37051 -14.28353,4.68661 -21.94141,8.26563 -2.35024,1.09841 -5.62982,2.60277 -7.28711,3.34375 -15.72061,7.0287 -33.95124,17.05341 -44.1289,24.26562 -2.969,2.10393 -5.64367,4.2285 -8.76563,6.91406 0.2174,-0.16258 0.48952,-0.42527 0.84375,-0.87695 l 0.82617,-1.05469 -1.05468,0.82617 c -0.58005,0.45491 -1.05469,0.92955 -1.05469,1.05469 0,0.23274 0.11745,0.27096 0.31445,0.15821 -4.59556,3.96288 -10.3543,9.38266 -20.84179,19.56835 -20.88224,20.28132 -22.54308,21.55646 -38.83399,29.84179 -5.30333,2.6973 -11.13401,5.7565 -12.95703,6.7969 -4.86371,2.7758 -12.52957,8.651 -15.90234,12.1875 l -2.94727,3.0898 -2.24414,4.8203 c -4.10433,8.8159 -6.71426,17.6213 -8.46484,28.5586 l -0.71289,4.4532 0.41406,4.2851 c 0.22783,2.3572 0.95917,7.1278 1.625,10.6016 l 1.21094,6.3164 -0.21875,8.3008 c -0.0204,-0.1052 -0.047,-0.2042 -0.082,-0.2911 -0.16719,-0.4143 -0.30468,-0.077 -0.30468,0.752 0,0.8283 0.13749,1.1683 0.30468,0.7539 0.0209,-0.052 0.039,-0.107 0.0547,-0.166 l -0.0156,0.6074 c -0.1433,5.4755 -0.57819,13.8873 -0.9668,18.6934 -0.38861,4.8062 -0.91782,22.4332 -1.17578,39.1718 l -0.28906,18.7207 c -0.12042,-0.9527 -0.21593,-0.1177 -0.21875,2.0704 h -0.002 c -0.002,1.7642 0.0605,2.7652 0.14844,2.6796 l -0.10742,6.9629 -0.79688,1.5078 c -0.43836,0.8287 -1.3338,2.0969 -1.99023,2.8184 -1.11845,1.2292 -2.30814,1.7745 -11.16016,5.1191 -5.62499,2.1255 -16.05265,6.9513 -19.72851,9.1309 -11.14918,6.611 -19.73039,14.1041 -26.35157,23.0078 -4.15965,5.5937 -10.21036,12.5365 -16.9082,19.6465 l -0.5918,0.4648 c -0.58005,0.4549 -1.05468,0.9296 -1.05468,1.0547 0,0.1344 0.11886,0.063 0.1875,0.08 -0.60355,0.6328 -1.26381,1.2529 -1.87696,1.8867 l 0.18164,-0.2324 -1.05468,0.8262 c -0.58005,0.4549 -1.05469,0.9296 -1.05469,1.0547 0,0.096 0.099,0.023 0.13477,0.059 l -0.88672,0.6953 c -0.58005,0.455 -1.05469,0.9295 -1.05469,1.0547 0,0.1175 0.033,0.1813 0.0859,0.2089 -5.75003,5.7857 -11.6693,11.4951 -17.35157,16.4532 -6.41931,5.6012 -8.12043,6.6027 -8.94921,5.2617 -0.20485,-0.3315 -0.91245,-0.6035 -1.57227,-0.6035 -2.41184,0 -4.8797,1.9689 -8.37109,6.6777 -5.95988,8.0381 -7.82938,10.0893 -10.93164,11.9981 -4.18795,2.5769 -8.20307,6.4069 -10.5586,10.0722 l -2.01367,3.1348 v 2.1387 c 0,1.176 0.2701,2.1367 0.60156,2.1367 0.33146,0 0.60352,0.4984 0.60352,1.1074 0,1.7653 4.54354,7.6282 7.67578,9.9043 1.57859,1.1471 8.69982,4.9555 15.82617,8.4609 l 12.95703,6.3731 5.42383,4.1094 c 6.06425,4.5962 8.91931,6.2692 13.1543,7.707 l 2.88867,0.9805 7.04492,-0.6719 c 13.96385,-1.3317 22.73951,-2.4783 24.07031,-3.1445 l 1.35547,-0.6778 v -3.4961 -3.4961 l -1.26367,-2.2773 c -1.70884,-3.0798 -3.63724,-4.6169 -8.98047,-7.1543 -2.48594,-1.1805 -4.98787,-2.7363 -5.56055,-3.457 l -1.04296,-1.3106 -0.0117,-3.0957 c -0.0265,-6.1278 -2.48579,-16.5179 -4.87305,-20.5918 -0.64236,-1.0962 -1.16797,-2.4788 -1.16797,-3.0723 0,-0.5935 2.2009,-3.1265 4.89063,-5.6289 l 4.89062,-4.5488 -0.30273,-2.3223 c -0.16616,-1.277 -0.48733,-2.8877 -0.71485,-3.5781 l -0.41406,-1.2539 8.875,-6.5801 c 10.6437,-7.8906 9.54306,-7.1295 32.65234,-22.5859 16.76607,-11.2138 23.12886,-15.3847 26.14063,-17.1387 11.03147,-6.4244 14.86028,-8.3074 22.21484,-10.9218 15.38807,-5.4702 19.57787,-9.3493 23.67969,-21.9239 0.81091,-2.4859 2.70421,-7.7725 4.20899,-11.75 10.04081,-26.5403 16.94314,-47.1104 18.78906,-55.9922 0.476,-2.2904 1.24244,-4.5413 1.70312,-5.0019 l 0.83789,-0.8379 6.4043,3.043 c 3.52241,1.6738 6.52285,3.0429 6.66797,3.0429 0.24379,0 15.46889,7.0704 27.50391,12.7735 2.81739,1.335 7.79169,3.6283 11.05468,5.0957 7.70131,3.4635 18.63057,9.1644 22.16992,11.5644 l 2.79297,1.8946 1.05078,2.2168 1.05274,2.2167 -0.35938,3.8653 -0.30273,-0.7559 -0.0469,1.1543 c -0.0199,0.4832 0.0591,0.8017 0.18555,0.8399 -0.41994,3.9603 -1.06885,7.4314 -2.76953,14.2773 -2.74783,11.0611 -3.92665,18.7824 -4.46094,29.2285 l -0.38476,7.5332 1.1289,11.1485 1.13086,11.1504 -0.0156,11.4335 c -0.11139,-0.052 -0.19141,0.29 -0.19141,0.92 0,0.6255 0.0793,0.97 0.18945,0.9238 l -0.002,1.0996 c -0.0694,0.1286 -0.11719,0.6606 -0.11719,1.5918 0,0.9125 0.0462,1.4419 0.11329,1.5859 v 0.5235 l -0.002,1.0703 c -0.07,0.084 -0.12069,0.5265 -0.125,1.3418 -0.004,0.853 0.0467,1.3639 0.1211,1.5 l -0.002,1.9512 -0.17578,-0.4395 -0.0469,1.1563 c -0.0216,0.5244 0.0748,0.8363 0.2207,0.8242 l -0.0137,10.6758 -1.08594,9.6425 -0.52344,4.6446 c -0.0187,-0.081 -0.01,-0.1605 -0.041,-0.2383 l -0.31641,-0.791 -0.0488,1.1562 c -0.0255,0.6191 0.11055,0.9644 0.30274,0.7969 l -0.45899,4.0742 -0.77734,0.9043 c -0.42708,0.4972 -1.18486,1.7165 -1.68359,2.7109 l -0.90625,1.8086 -0.29883,5.2344 c -0.019,-0.085 -0.0158,-0.1896 -0.0449,-0.2617 -0.16718,-0.4144 -0.30274,-0.077 -0.30274,0.752 0,0.7769 0.12055,1.0987 0.27344,0.7968 l -0.0234,0.4082 c -0.3833,6.6913 -0.71892,10.4016 -2.1875,24.2461 -0.78857,7.434 -0.36688,11.8444 1.33789,14.0117 l 1.19336,1.5157 h 10.50781 10.50586 l 6.09961,-0.916 c 3.35491,-0.5039 6.38127,-1.0906 6.72461,-1.3028 0.34334,-0.2122 9.73292,-0.4351 20.86524,-0.4961 l 14.93359,-0.08 c -0.41849,0.1229 0.0531,0.2227 1.38867,0.2227 1.39875,0 1.9198,-0.1069 1.37695,-0.2383 l 2.54102,-0.014 6.32813,-1.0566 c 3.4803,-0.5803 7.68255,-1.2665 9.33984,-1.5254 12.41401,-1.9397 16.43751,-4.1227 17.01367,-9.2344 l 0.29688,-2.6367 -0.94532,-1.8261 c -0.5195,-1.0047 -1.9729,-2.3268 -3.23047,-2.9375 l -2.2871,-1.1094 -4.21875,0.2461 c -1.95771,0.1142 -4.95717,0.1901 -7.37305,0.2285 -0.0157,-0.01 0.0109,-0.012 -0.008,-0.02 -0.41432,-0.1671 -1.0935,-0.1671 -1.50782,0 -0.0618,0.025 0.004,0.041 -0.0254,0.064 l -4.34375,0.023 -3.01367,-1.58 c -1.65729,-0.8689 -4.64016,-1.9146 -6.62891,-2.3243 -4.98957,-1.028 -5.94989,-1.6362 -11.44921,-7.2441 -2.65167,-2.7039 -6.34942,-6.1056 -8.2168,-7.5586 l -3.39649,-2.6406 -0.4082,-1.6309 c -0.62259,-2.4806 -3.88097,-6.6702 -5.80859,-7.4687 -0.94451,-0.3912 -1.97895,-1.0266 -2.29883,-1.4121 l -0.58203,-0.6992 1.45703,-5.4122 c 0.80046,-2.9764 1.45884,-6.2489 1.46484,-7.2714 l 0.01,-1.8594 -1.85156,-1.6485 -1.85157,-1.6503 0.37305,-4.0235 c 0.93253,-10.0929 1.93253,-17.6709 3.91211,-29.6387 0.30155,-1.8231 0.86617,-5.348 1.25586,-7.8339 0.3897,-2.4859 1.05642,-6.1461 1.48047,-8.1348 0.42405,-1.9888 1.06109,-5.3787 1.41601,-7.5332 0.94801,-5.7547 4.80792,-26.3842 5.52539,-29.5313 0.34005,-1.4915 0.7474,-3.5251 0.90625,-4.5195 0.4629,-2.8976 1.52354,-6.9167 3.02149,-11.4492 0.76681,-2.3202 2.14137,-6.7964 3.05469,-9.9453 l 1.66211,-5.7246 0.01,-8.1348 0.0117,-8.1367 -2.56836,-4.8516 -2.57031,-4.8535 -3.72852,-3.7324 c -2.0514,-2.0527 -6.30623,-5.7341 -9.45508,-8.1817 -3.14884,-2.4476 -6.66564,-5.6352 -7.81445,-7.0839 -3.45241,-4.3537 -6.52145,-7.6452 -15.38086,-16.4961 -14.99379,-14.9792 -28.9584,-25.8258 -46.97461,-36.4825 -3.66287,-2.1667 -6.73908,-4.3412 -6.83398,-4.8339 l -0.17188,-0.8965 2.88086,-0.7696 c 8.38243,-2.2416 10.44133,-2.883 14.0293,-4.3671 5.10954,-2.1135 12.67322,-5.3869 14.01953,-6.0684 0.584,-0.2956 2.34554,-0.9704 3.91602,-1.498 8.93609,-3.002 31.51678,-12.0495 37.50781,-15.0293 3.35414,-1.6683 10.3762,-5.8091 12.41211,-7.3184 2.5319,-1.8771 3.64678,-1.7393 4.66601,0.5762 0.47417,1.0772 1.43524,3.2436 2.13672,4.8144 0.70149,1.5708 1.27539,3.0063 1.27539,3.1895 0,0.1831 0.78199,2.0164 1.73828,4.0742 0.95631,2.0578 2.99615,6.492 4.53125,9.8535 1.53511,3.3615 3.83533,7.9728 5.11329,10.2461 4.90559,8.7263 9.57584,16.9542 11.92382,21.0078 1.34394,2.3202 3.33337,5.8453 4.41993,7.834 6.3188,11.5655 11.72237,16.4372 19.75781,17.8145 1.892,0.3243 4.59325,0.8568 6.00195,1.1816 5.05446,1.1653 7.74342,1.7257 11.59961,2.418 2.15448,0.3868 4.82755,0.9771 5.93945,1.3125 6.3427,1.9135 22.16431,4.7587 41.36914,7.4394 3.64604,0.5089 9.74879,1.4819 13.56055,2.1621 3.81178,0.6801 8.26314,1.4721 9.89258,1.7598 5.24429,0.926 5.15616,2.4306 -0.29297,4.9707 -4.07187,1.8981 -11.96613,7.1235 -16.37109,10.8379 -3.58814,3.0255 -4.81499,4.9745 -7.07617,11.2363 l -1.77344,4.9063 1.18945,1.1894 1.18945,1.1895 1.49805,-0.9825 c 0.82403,-0.5399 1.49805,-1.1806 1.49805,-1.4238 0,-0.2432 1.28004,-1.7044 2.84375,-3.2461 l 2.84375,-2.8027 h 1.375 c 0.75649,0 1.375,0.1631 1.375,0.3613 0,0.1982 -1.43201,2.7064 -3.1836,5.5742 -4.02852,6.5958 -4.55953,7.8409 -5.02539,11.8047 l -0.3789,3.2305 1.30273,0.6973 1.30469,0.6972 2.77539,-0.416 2.77539,-0.416 1.00195,1.3281 1.00196,1.3262 1.59961,-0.4004 c 2.0059,-0.5035 3.32562,-1.7965 8.49218,-8.3223 3.86334,-4.8797 5.81055,-6.35 5.81055,-4.3847 0,0.4592 -0.98135,3.4329 -2.18164,6.6074 -1.2003,3.1745 -2.02169,6.1878 -1.82617,6.6973 0.42292,1.1022 2.14299,1.1803 3.40625,0.1543 1.46738,-1.1917 6.12409,-7.4543 11.30078,-15.1973 l 4.83398,-7.2324 7.38086,-7.3828 7.38086,-7.3809 h 4.69336 4.69531 l 1.78907,-1.5078 c 0.98479,-0.8286 2.51246,-1.5059 3.39257,-1.5059 2.172,0 4.76516,-1.4243 5.98438,-3.2851 0.55405,-0.8455 1.47447,-1.5391 2.04687,-1.5391 0.57241,0 1.94884,-0.5559 3.0586,-1.2324 l 2.01758,-1.2305 0.91992,-2.3398 0.91992,-2.3418 1.88477,-0.7071 c 4.34943,-1.6291 4.82648,-2.1345 6.08789,-6.457 0.21743,-0.745 1.66448,-2.218 3.21679,-3.2734 1.55232,-1.0554 5.60244,-4.0396 8.99805,-6.6309 3.3956,-2.5914 6.446,-4.7109 6.7793,-4.7109 1.13432,0 0.60888,1.5515 -3.00977,8.8906 -1.98875,4.0335 -3.61719,7.62 -3.61719,7.9687 0,0.3486 -0.24772,1.1042 -0.55078,1.6797 -0.30306,0.5756 -1.14528,2.5384 -1.87109,4.3614 -0.7258,1.823 -1.66987,4.1268 -2.09961,5.1211 -0.42973,0.9944 -1.06398,3.0299 -1.4082,4.5214 l -0.625,2.711 0.82617,3.3144 c 1.70413,6.8401 5.02709,19.6196 5.32812,20.4903 0.17191,0.4972 0.46749,2.5307 0.65821,4.5195 0.19071,1.9887 0.76492,6.6001 1.27539,10.2461 0.36599,2.6141 0.72339,6.9934 1.05664,10.959 -0.0496,0.1455 -0.082,0.4046 -0.082,0.7949 0,0.6961 0.10432,0.9328 0.23437,0.7812 0.0746,0.9625 0.21153,1.8935 0.26563,2.75 0.60827,9.6314 1.22509,14.328 3.33203,25.3926 0.78895,4.1432 2.00574,10.6531 2.70312,14.4649 0.69739,3.8117 1.50992,8.1509 1.80664,9.6425 0.29672,1.4915 0.96882,4.9521 1.49414,7.6915 l 0.95508,4.9824 -1.46679,2.5508 c -0.80723,1.4038 -1.64765,3.4163 -1.86719,4.4707 -0.49403,2.3726 -1.18004,2.9347 -4.23828,3.4707 l -2.41211,0.4218 -4.51953,4.7227 c -2.48594,2.5974 -5.67742,5.4658 -7.0918,6.373 -2.87055,1.8413 -3.47703,3.3206 -2.94727,7.1856 l 0.35743,2.6113 -0.73243,0.5449 c -0.40364,0.2999 -3.04003,1.1819 -5.85742,1.959 -2.8174,0.777 -5.50318,1.7088 -5.96875,2.0723 l -0.8457,0.6621 h -2.5332 c -0.0239,-0.031 -0.0577,-0.061 -0.14258,-0.096 -0.41433,-0.1672 -1.0935,-0.1672 -1.50782,0 -0.0848,0.034 -0.11864,0.065 -0.14257,0.096 h -1.08985 c 0.0186,-0.037 -0.0392,-0.078 -0.27343,-0.123 -0.74578,-0.1436 -1.96712,-0.1436 -2.7129,0 -0.23422,0.045 -0.29201,0.086 -0.27343,0.123 h -6.06836 l -1.25391,1.5059 -1.2539,1.5078 -0.0195,2.1816 -0.0195,2.1836 3.30469,3.2109 c 3.71272,3.6085 7.15544,6.0665 11.1582,7.9668 l 2.71289,1.2891 3.31446,0.01 c 5.68781,0.013 13.4402,-0.4115 17.1914,-0.9395 8.57731,-1.2073 23.40181,-1.9926 38.05469,-2.0156 l 15.77344,-0.023 1.70312,-1.252 1.70508,-1.25 1.36719,-3.873 1.36914,-3.8711 -0.31641,-3.1407 c -0.17408,-1.7277 -0.558,-3.7612 -0.85351,-4.5195 -0.29551,-0.7582 -0.83559,-2.4652 -1.19922,-3.791 -0.36363,-1.3258 -1.332,-4.8508 -2.15234,-7.834 -0.82035,-2.9831 -1.75456,-8.0732 -2.07618,-11.3125 -0.32162,-3.2393 -1.00771,-6.7396 -1.52539,-7.7773 l -0.9414,-1.8868 -0.004,-10.9062 -0.002,-10.9043 1.27343,-11.1504 c 1.18483,-10.3719 1.72493,-12.6543 2.99219,-12.6543 0.5565,0 12.32155,23.8564 16.04883,32.543 0.49778,1.1601 1.53933,3.4638 2.31445,5.1211 4.20778,8.9967 9.73005,24.7628 11.40039,32.5449 0.56916,2.6516 1.12984,5.1364 1.2461,5.5234 0.11627,0.387 -0.58511,1.538 -1.5586,2.5567 -0.97349,1.0187 -1.76953,2.4684 -1.76953,3.2207 0,1.6581 -4.35938,8.2249 -7.81445,11.7715 -1.38349,1.4201 -3.21384,4.1308 -4.06641,6.0253 l -1.54882,3.4454 -0.29493,4.6992 -0.29492,4.7011 -1.98633,1.5137 c -1.09188,0.8328 -3.83563,2.3047 -6.09765,3.2696 l -4.11133,1.7539 -2.88672,0.016 c -8.67144,0.049 -17.30922,1.84 -18.65039,3.8672 -0.7586,1.1466 -0.50262,4.86 0.42578,6.1855 2.05717,2.937 9.32464,6.4578 19.30274,9.3496 l 4.21875,1.2207 12.05273,-0.3476 c 6.62915,-0.1912 14.90054,-0.6206 18.38086,-0.9551 1.05007,-0.1009 4.49151,-0.2362 6.45508,-0.3633 -0.19727,0.1376 0.0546,0.2481 0.77734,0.2481 0.82862,0 1.16627,-0.1356 0.75195,-0.3028 -0.15207,-0.061 -0.35568,0.016 -0.55273,0 2.85295,-0.1781 5.37155,-0.3332 8.91406,-0.5019 0.0154,0.088 0.32037,0.1582 1.13086,0.1582 1.1601,0 1.63474,-0.1239 1.05469,-0.2754 -0.0247,-0.01 -0.0639,0.01 -0.0898,0 1.17519,-0.052 1.80933,-0.1209 2.95312,-0.166 18.52091,-0.7314 22.62784,-1.4539 24.64648,-4.336 l 0.96485,-1.3769 v -8.1856 -8.1836 l -2.70117,-5.0898 c -1.48619,-2.8 -3.67196,-7.0288 -4.85743,-9.3965 l -2.15625,-4.3047 -0.57031,-4.0293 c -0.59557,-4.2054 -1.21057,-5.8337 -2.96679,-7.8515 -0.57699,-0.6629 -1.21919,-2.1125 -1.42774,-3.2227 -0.20855,-1.1103 -1.04326,-2.8065 -1.85351,-3.7695 l -1.47266,-1.752 -0.37695,-2.8594 c -0.20759,-1.5727 -0.92848,-6.2493 -1.60157,-10.3925 -1.35644,-8.3498 -1.67326,-10.5722 -3.4414,-24.1055 -1.18817,-9.0942 -2.03078,-17.5641 -2.84571,-28.627 -1.33026,-18.0585 -4.77568,-27.1281 -14.99804,-39.4726 -4.93312,-5.9572 -6.64065,-8.6757 -7.88867,-12.5586 l -1.03516,-3.2168 1.02734,-2.1523 c 1.34471,-2.8199 7.51663,-10.9166 13.64453,-17.8985 1.96631,-2.2404 6.1123,-7.1908 11.13086,-13.291 1.09075,-1.3258 3.47067,-4.1859 5.28711,-6.3555 3.77054,-4.5035 9.23063,-12.7117 11.40821,-17.1484 0.81342,-1.6573 2.71077,-5.4525 4.21679,-8.4355 1.50601,-2.9832 3.61387,-7.3224 4.6836,-9.6426 1.06973,-2.3202 2.57108,-5.5752 3.33593,-7.2324 3.84614,-8.3338 5.70508,-12.4638 5.70508,-12.6758 0,-0.1289 0.90728,-2.2113 2.01563,-4.627 1.10836,-2.4157 3.71146,-8.4597 5.78515,-13.4316 2.0737,-4.9719 4.29439,-10.1619 4.93555,-11.5332 l 1.16602,-2.4942 -0.19141,-14.6816 -0.19141,-14.6836 -2.77343,-7.05273 c -4.06024,-10.32778 -8.52024,-18.06073 -13.86719,-24.04296 -4.13013,-4.62085 -15.42588,-12.35878 -25.20313,-17.26368 -2.55437,-1.28144 -8.38563,-5.32172 -11.74414,-8.13867 -1.08675,-0.91151 -2.13571,-1.65625 -2.33203,-1.65625 -0.19633,0 -3.41493,-1.98484 -7.15234,-4.41015 -14.42904,-9.36342 -21.07301,-13.31335 -36.55078,-21.73047 -7.08494,-3.85292 -12.97777,-7.00586 -13.09375,-7.00586 -0.11599,0 -1.91227,-0.77997 -3.99219,-1.73242 -15.42368,-7.06301 -22.70487,-9.06477 -44.1582,-12.14063 -2.65166,-0.38018 -6.17865,-0.91669 -7.83594,-1.19336 -1.65729,-0.27666 -5.58944,-0.81271 -8.73828,-1.18945 -3.14886,-0.37675 -8.16531,-1.05908 -11.14844,-1.51758 -2.98312,-0.45849 -6.7802,-1.00274 -8.4375,-1.20898 -1.65729,-0.20624 -5.86149,-0.76378 -9.3418,-1.23829 -11.13489,-1.51814 -20.20189,-0.74075 -27.49023,2.35743 l -3.54492,1.50781 -0.83789,-0.81641 -0.83789,-0.81836 -0.3711,-5.74609 -0.37109,-5.74805 -1.20117,-0.90625 c -0.66093,-0.49946 -1.92838,-0.91723 -2.81446,-0.92773 -0.88608,-0.0105 -2.37751,-0.66007 -3.31445,-1.44336 -1.73492,-1.45041 -3.50784,-2.19764 -5.83008,-2.45508 -0.71279,-0.079 -2.24911,-0.45908 -3.41211,-0.84375 -1.16301,-0.38468 -4.28092,-0.65993 -6.92969,-0.61133 -2.64875,0.0486 -5.69753,-0.11838 -6.77539,-0.37109 z m 18.57031,0.93164 -0.79101,0.31641 1.15429,0.0469 c 0.63529,0.0262 0.99127,-0.11616 0.79102,-0.31641 -0.20026,-0.20028 -0.71926,-0.22097 -1.1543,-0.0469 z m -32.1289,1.91797 0.82812,1.05469 c 0.45491,0.58005 0.92955,1.05469 1.05469,1.05469 0.49601,0 0.17573,-0.49593 -0.82813,-1.2832 z m 0.60351,0 1.14649,1.35547 c 1.07887,1.27427 1.56445,1.63071 1.56445,1.14844 0,-0.11436 -0.60969,-0.72404 -1.35547,-1.35547 z m -44.74805,1.0918 c -0.58004,0.15159 -0.10542,0.27539 1.05469,0.27539 1.1601,0 1.63474,-0.1238 1.05469,-0.27539 -0.58005,-0.15158 -1.52933,-0.15158 -2.10938,0 z m 0,0.60156 c -0.58004,0.15158 -0.10542,0.27539 1.05469,0.27539 1.1601,0 1.63474,-0.12381 1.05469,-0.27539 -0.58005,-0.15159 -1.52933,-0.15159 -2.10938,0 z m 7.53321,0.0156 c -0.41432,0.16719 -0.0747,0.30469 0.7539,0.30469 0.82861,0 1.16823,-0.1375 0.75391,-0.30469 -0.41432,-0.16718 -1.09349,-0.16718 -1.50781,0 z m -7.53321,0.58789 c -0.58004,0.15158 -0.10542,0.27539 1.05469,0.27539 1.1601,0 1.63474,-0.12381 1.05469,-0.27539 -0.58005,-0.15159 -1.52933,-0.15159 -2.10938,0 z m 52.375,1.92187 -0.0469,1.1543 c -0.0262,0.6353 0.11615,0.99128 0.31641,0.79102 0.20028,-0.20025 0.22096,-0.71926 0.0469,-1.1543 z m 38.05665,3.07422 c -0.0551,0.13654 -0.0899,0.42748 -0.0899,0.8418 0,0.82862 0.13751,1.16822 0.30469,0.75391 0.16718,-0.41432 0.16718,-1.09154 0,-1.50586 -0.0836,-0.20716 -0.15975,-0.22639 -0.21484,-0.0899 z m 0.60351,0 c -0.0551,0.13654 -0.0898,0.42748 -0.0898,0.8418 0,0.82862 0.1375,1.16822 0.30468,0.75391 0.16718,-0.41432 0.16718,-1.09154 0,-1.50586 -0.0836,-0.20716 -0.15974,-0.22639 -0.21484,-0.0899 z m 0.60156,0 c -0.0551,0.13654 -0.0879,0.42748 -0.0879,0.8418 0,0.82862 0.13556,1.16822 0.30274,0.75391 0.16719,-0.41432 0.16719,-1.09154 0,-1.50586 -0.0836,-0.20716 -0.15975,-0.22639 -0.21485,-0.0899 z m 25.61719,4.65039 -0.79101,0.31641 1.15429,0.0469 c 0.63529,0.0262 0.99127,-0.11614 0.79102,-0.3164 -0.20026,-0.20027 -0.71926,-0.22096 -1.1543,-0.0469 z m -2.95117,0.48438 c -0.20936,-0.009 -0.44655,0.0301 -0.66406,0.11719 l -0.79102,0.3164 1.1543,0.0488 c 0.63529,0.0262 0.99126,-0.1181 0.79101,-0.31836 -0.10013,-0.10014 -0.28087,-0.15544 -0.49023,-0.16406 z m 3.01367,0 c -0.20936,-0.009 -0.4485,0.0301 -0.66601,0.11719 l -0.79102,0.3164 1.15625,0.0488 c 0.63529,0.0262 0.99127,-0.1181 0.79102,-0.31836 -0.10013,-0.10014 -0.28088,-0.15544 -0.49024,-0.16406 z m 0,0.60351 c -0.20936,-0.009 -0.4485,0.0301 -0.66601,0.11719 l -0.79102,0.31641 1.15625,0.0469 c 0.63529,0.0262 0.99127,-0.11615 0.79102,-0.3164 -0.10013,-0.10014 -0.28088,-0.15544 -0.49024,-0.16407 z m -3.67773,0.11719 -0.79102,0.31641 1.1543,0.0469 c 0.63529,0.0262 0.99126,-0.11615 0.79101,-0.3164 -0.20026,-0.20028 -0.71926,-0.22097 -1.15429,-0.0469 z m 12.01562,1.2168 c -0.41432,0.16718 -0.0767,0.30469 0.75195,0.30469 0.82862,0 1.16823,-0.13751 0.75391,-0.30469 -0.41432,-0.16719 -1.09154,-0.16719 -1.50586,0 z m 21.69531,1.80859 c -0.41432,0.16718 -0.0767,0.30274 0.75196,0.30274 0.82861,0 1.16822,-0.13556 0.7539,-0.30274 -0.41432,-0.16718 -1.09153,-0.16718 -1.50586,0 z m -194.35546,16.25586 c -0.58005,0.15158 -0.10542,0.27539 1.05468,0.27539 1.16011,0 1.63475,-0.12381 1.05469,-0.27539 -0.58005,-0.15158 -1.52932,-0.15158 -2.10937,0 z m -5.6875,0.002 -0.79102,0.31836 1.1543,0.0469 c 0.6353,0.0262 0.99127,-0.11615 0.79101,-0.31641 -0.20025,-0.20027 -0.71926,-0.22291 -1.15429,-0.0488 z m 10.24414,0 -0.79102,0.31836 1.15625,0.0469 c 0.63529,0.0262 0.99127,-0.11615 0.79102,-0.31641 -0.20026,-0.20027 -0.72122,-0.22291 -1.15625,-0.0488 z m 0.66601,0.48633 c -0.20936,-0.009 -0.4485,0.0301 -0.66601,0.11719 l -0.79102,0.31641 1.15625,0.0469 c 0.63529,0.0262 0.99127,-0.11615 0.79102,-0.31641 -0.10013,-0.10014 -0.28088,-0.15543 -0.49024,-0.16406 z m -15.01562,0.004 c -0.27308,0 -0.54675,0.0414 -0.75391,0.125 -0.41432,0.16718 -0.0747,0.30469 0.75391,0.30469 0.82861,0 1.16627,-0.13751 0.75195,-0.30469 -0.20716,-0.0836 -0.47888,-0.125 -0.75195,-0.125 z m 4.82031,0 c -0.27308,0 -0.54674,0.0414 -0.75391,0.125 -0.41432,0.16718 -0.0747,0.30469 0.75391,0.30469 0.82861,0 1.16823,-0.13751 0.75391,-0.30469 -0.20716,-0.0836 -0.48084,-0.125 -0.75391,-0.125 z m 2.41016,0 c -0.27308,0 -0.5448,0.0414 -0.75196,0.125 -0.41432,0.16718 -0.0767,0.30469 0.75196,0.30469 0.82861,0 1.16822,-0.13751 0.7539,-0.30469 -0.20716,-0.0836 -0.48083,-0.125 -0.7539,-0.125 z m 2.4121,0 c -0.27307,0 -0.54674,0.0414 -0.7539,0.125 -0.41433,0.16718 -0.0747,0.30469 0.7539,0.30469 0.82862,0 1.16628,-0.13751 0.75196,-0.30469 -0.20717,-0.0836 -0.47888,-0.125 -0.75196,-0.125 z m 2.93946,0 c -0.32769,-0.004 -0.67753,0.031 -0.97071,0.10742 -0.58635,0.1528 -0.25218,0.28848 0.74219,0.30078 0.99441,0.0123 1.47443,-0.11422 1.06641,-0.2793 -0.20401,-0.0825 -0.5102,-0.12486 -0.83789,-0.1289 z m -10.92578,0.125 c -0.41432,0.16718 -0.0747,0.30469 0.7539,0.30469 0.82862,0 1.16823,-0.13751 0.75391,-0.30469 -0.41433,-0.16718 -1.09349,-0.16718 -1.50781,0 z m 5.57422,0.47851 c -0.27308,0 -0.5448,0.0414 -0.75196,0.125 -0.41432,0.16719 -0.0767,0.30469 0.75196,0.30469 0.82861,0 1.16822,-0.1375 0.7539,-0.30469 -0.20716,-0.0836 -0.48083,-0.125 -0.7539,-0.125 z m 2.4121,0 c -0.27307,0 -0.54674,0.0414 -0.7539,0.125 -0.41433,0.16719 -0.0747,0.30469 0.7539,0.30469 0.82862,0 1.16628,-0.1375 0.75196,-0.30469 -0.20717,-0.0836 -0.47888,-0.125 -0.75196,-0.125 z m 31.63868,63.75391 2.56445,1.88867 2.56641,1.88867 3.96289,5.95313 c 2.17948,3.27386 4.89859,6.77452 6.04297,7.7793 l 2.08007,1.82812 h 1.68555 c 0.92666,0 3.00406,-0.66966 4.61719,-1.48633 1.61314,-0.81668 3.63181,-1.63696 4.48437,-1.82422 l 1.54883,-0.34179 1.19336,0.90234 c 1.51276,1.14347 3.27811,1.15007 4.77539,0.0176 1.64741,-1.24603 5.13243,-1.09245 7.26563,0.32031 l 1.80859,1.19727 3.67383,0.004 3.67578,0.004 1.38867,1.20703 c 0.76435,0.66292 2.22934,1.21075 3.25586,1.21875 1.02652,0.008 3.49367,0.68467 5.48242,1.50391 4.34634,1.79043 4.88921,1.81515 8.23633,0.36328 2.86147,-1.24122 4.11611,-2.46717 7.17188,-7.00391 2.26614,-3.36442 4.07448,-5.57503 7.1914,-8.79492 l 2.10938,-2.17969 2.71289,-0.36328 c 1.48883,-0.19975 6.29123,-0.54379 10.67578,-0.76562 -0.21128,0.13972 0.0429,0.2539 0.77344,0.2539 0.82862,0 1.16822,-0.1375 0.7539,-0.30468 -0.14939,-0.0603 -0.34974,0.0168 -0.54297,0 l 2.08399,-0.10547 c -0.22928,0.011 -0.46177,0.0349 -0.63672,0.10547 -0.41433,0.16718 -0.0747,0.30468 0.75391,0.30468 0.8286,0 1.16628,-0.1375 0.75195,-0.30468 -0.18997,-0.0767 -0.43946,-0.10888 -0.68945,-0.11524 l 4.75585,-0.24023 1.65821,2.01953 c 0.91227,1.11023 4.11698,4.46637 7.12109,7.45898 3.0041,2.99263 7.38574,8.01716 9.73828,11.16602 2.35255,3.14882 5.58939,6.71482 7.19336,7.92382 3.17822,2.3956 9.88756,6.1626 12.21094,6.8555 2.36118,0.7043 7.52435,4.2408 9.53711,6.5332 1.02592,1.1685 3.11823,4.7534 4.65039,7.9668 4.53509,9.5116 9.94873,15.2907 18.24219,19.4707 l 2.55273,1.2851 0.37305,1.4902 0.37305,1.4903 -1.58008,2.6992 c -0.86993,1.4844 -2.5938,3.8929 -3.83008,5.3535 -1.23629,1.4606 -2.65516,3.1698 -3.15234,3.7969 -0.49719,0.627 -2.72146,3.3297 -4.94336,6.0078 -6.83705,8.2408 -12.51314,15.4886 -14.21875,18.1523 -1.9615,3.0633 -3.10106,3.5421 -5.48633,2.3086 -0.99448,-0.5143 -3.24534,-0.9316 -5.00196,-0.9316 h -3.19335 l -5.72461,1.8398 c -3.14886,1.0117 -7.89522,2.3645 -10.54688,3.0059 v 0 c -2.33483,0.5646 -3.96364,0.8375 -5.43359,0.9589 0.0736,-0.052 0.0342,-0.115 -0.14063,-0.1855 -0.41432,-0.1672 -1.09349,-0.1672 -1.50781,0 -0.12023,0.048 -0.17598,0.094 -0.17578,0.1348 -0.99288,-0.042 -1.96927,-0.047 -2.98828,-0.3125 -0.99437,-0.2588 -4.1123,-0.9501 -6.92969,-1.5371 -2.8174,-0.5871 -7.15665,-1.5987 -9.64258,-2.2481 -2.48594,-0.6494 -6.14797,-1.5711 -8.13672,-2.0469 -1.98875,-0.4758 -5.64884,-1.5157 -8.13476,-2.3125 -10.3609,-3.321 -18.76774,-5.7459 -30.4336,-8.7754 -2.65166,-0.6885 -7.273,-1.9148 -10.26953,-2.7246 -2.99652,-0.8097 -6.1164,-1.4925 -6.93164,-1.5175 -6.71778,-0.2078 -12.17171,-7.0701 -15.29101,-19.2383 -3.17432,-12.3829 -7.8207,-23.9915 -13.9961,-34.9727 l -2.63086,-4.6797 -1.50586,-5.7949 c -0.82807,-3.1871 -1.49823,-6.536 -1.49023,-7.4434 0.008,-0.90729 -0.98627,-5.79612 -2.21094,-10.86322 l -2.22656,-9.21289 1.17383,-2.83984 1.17187,-2.83984 1.79297,-0.17579 z m 3.01367,2.75977 0.82617,1.05468 c 0.78728,1.00387 1.2832,1.32413 1.2832,0.82813 0,-0.12514 -0.47463,-0.59978 -1.05468,-1.05469 z m 93.10937,0.98242 c -0.27307,0 -0.54674,0.0414 -0.7539,0.125 -0.41432,0.16718 -0.0747,0.30469 0.7539,0.30469 0.82862,0 1.16823,-0.13751 0.75391,-0.30469 -0.20717,-0.0836 -0.48083,-0.125 -0.75391,-0.125 z m 9.64258,0 c -0.27308,0 -0.54675,0.0414 -0.7539,0.125 -0.41432,0.16718 -0.0747,0.30469 0.7539,0.30469 0.82861,0 1.16627,-0.13751 0.75195,-0.30469 -0.20716,-0.0836 -0.47887,-0.125 -0.75195,-0.125 z m -109.46289,0.55078 c -0.05,0.19115 -0.0801,0.59964 -0.0801,1.17969 0,1.16011 0.12381,1.63474 0.27539,1.05468 0.15158,-0.58005 0.15158,-1.52931 0,-2.10937 -0.0758,-0.29003 -0.14536,-0.31615 -0.19531,-0.125 z m 99.06641,0.17773 c -0.41432,0.16718 -0.0747,0.30469 0.7539,0.30469 0.82862,0 1.16823,-0.13751 0.75391,-0.30469 -0.41433,-0.16718 -1.09349,-0.16718 -1.50781,0 z m 10.24609,0 c -0.41432,0.16718 -0.0767,0.30469 0.75195,0.30469 0.82861,0 1.16823,-0.13751 0.75391,-0.30469 -0.41432,-0.16718 -1.09153,-0.16718 -1.50586,0 z m -10.20898,0.58985 -0.79102,0.3164 1.15625,0.0488 c 0.63529,0.0262 0.99127,-0.11614 0.79102,-0.3164 -0.20026,-0.20027 -0.72121,-0.22291 -1.15625,-0.0488 z m -99.22852,3.72656 -0.0469,1.1543 c -0.0262,0.63529 0.11614,0.99127 0.3164,0.79101 0.20028,-0.20026 0.22097,-0.71926 0.0469,-1.15429 z m 54.69531,10.01758 c -0.20936,-0.009 -0.44654,0.0301 -0.66406,0.11719 l -0.79101,0.3164 1.15429,0.0469 c 0.63529,0.0262 0.99127,-0.11616 0.79102,-0.31641 -0.10013,-0.10014 -0.28088,-0.15544 -0.49024,-0.16406 z m -267.82812,26.74413 -1.05469,0.8262 c -0.58005,0.4549 -1.05469,0.9295 -1.05469,1.0547 0,0.496 0.49592,0.1776 1.28321,-0.8262 z m -18.16602,41.2227 c -0.0544,0.1344 -0.0915,0.4657 -0.0976,0.9628 -0.0123,0.9941 0.11421,1.4746 0.27929,1.0665 0.16505,-0.408 0.17428,-1.2223 0.0215,-1.8086 -0.0764,-0.2932 -0.14873,-0.3552 -0.20313,-0.2207 z m -0.11914,3.373 -0.0469,1.1563 c -0.0262,0.6353 0.11614,0.9913 0.3164,0.791 0.20028,-0.2003 0.22097,-0.7212 0.0469,-1.1563 z m 0.72266,0.8457 c -0.0544,0.1345 -0.0915,0.4657 -0.0977,0.9629 -0.0123,0.9941 0.11227,1.4744 0.27735,1.0664 0.16505,-0.408 0.17623,-1.2222 0.0234,-1.8086 -0.0764,-0.2931 -0.14872,-0.3552 -0.20312,-0.2207 z m 1.17383,16.6934 c -0.0551,0.1365 -0.0879,0.4275 -0.0879,0.8418 0,0.8283 0.13555,1.1682 0.30273,0.7539 0.16719,-0.4143 0.16719,-1.0916 0,-1.5059 -0.0836,-0.2071 -0.15975,-0.2264 -0.21484,-0.09 z m 1.30273,9.5586 c -0.109,-0.041 -0.18555,0.3043 -0.18555,0.9257 0,0.8283 0.13555,1.1683 0.30274,0.7539 0.16718,-0.4143 0.16718,-1.0935 0,-1.5078 -0.0418,-0.1035 -0.0808,-0.1583 -0.11719,-0.1718 z m 0.60156,0 c -0.109,-0.041 -0.18554,0.3043 -0.18554,0.9257 0,0.8283 0.13749,1.1683 0.30468,0.7539 0.16718,-0.4143 0.16718,-1.0935 0,-1.5078 -0.0418,-0.1035 -0.0828,-0.1583 -0.11914,-0.1718 z m 348.21485,0.5078 c -0.58636,0.1528 -0.25219,0.2888 0.74218,0.3008 0.99441,0.012 1.47247,-0.1123 1.06446,-0.2774 -0.40802,-0.1648 -1.22028,-0.1762 -1.80664,-0.023 z m 1.57226,0.4961 c -0.32769,0 -0.67752,0.031 -0.9707,0.1074 -0.58636,0.1528 -0.25218,0.2868 0.74219,0.2988 0.99441,0.012 1.47442,-0.1122 1.0664,-0.2773 -0.204,-0.082 -0.5102,-0.1249 -0.83789,-0.1289 z m -197.89843,0.2246 0.82812,1.0527 c 0.78729,1.0039 1.28125,1.3241 1.28125,0.8281 0,-0.1251 -0.47464,-0.5998 -1.05469,-1.0547 z m 196.61523,0.5039 c -0.41432,0.1672 -0.0747,0.3047 0.75391,0.3047 0.82861,0 1.16822,-0.1375 0.7539,-0.3047 -0.41432,-0.1672 -1.09349,-0.1672 -1.50781,0 z m -349.20313,0.7617 c -0.0551,0.1365 -0.0879,0.4275 -0.0879,0.8418 0,0.8283 0.13555,1.1683 0.30274,0.7539 0.16718,-0.4143 0.16718,-1.0916 0,-1.5059 -0.0836,-0.2071 -0.15975,-0.2263 -0.21485,-0.09 z m 165.24415,9.582 0.82617,1.0528 c 0.78728,1.0039 1.2832,1.3241 1.2832,0.8281 0,-0.1251 -0.47464,-0.5998 -1.05469,-1.0547 z m -166.44922,2.4707 c -0.0551,0.1366 -0.0879,0.4294 -0.0879,0.8438 0,0.8283 0.13555,1.1662 0.30273,0.7519 0.16719,-0.4143 0.16719,-1.0915 0,-1.5058 -0.0836,-0.2072 -0.15975,-0.2264 -0.21484,-0.09 z m 0,2.4102 c -0.0551,0.1365 -0.0879,0.4294 -0.0879,0.8437 0,0.8283 0.13555,1.1682 0.30273,0.7539 0.16719,-0.4143 0.16719,-1.0935 0,-1.5078 -0.0836,-0.2072 -0.15975,-0.2263 -0.21484,-0.09 z m 0.0976,2.3262 c -0.109,-0.041 -0.18554,0.3062 -0.18554,0.9277 0,0.8283 0.13555,1.1682 0.30273,0.7539 0.16719,-0.4143 0.16719,-1.0935 0,-1.5078 -0.0418,-0.1036 -0.0808,-0.1603 -0.11719,-0.1738 z m 0.41602,4.2421 -0.0469,1.1543 c -0.0262,0.6353 0.11616,0.9914 0.31641,0.7911 0.20028,-0.2002 0.22096,-0.7192 0.0469,-1.1543 z m -1.01953,7.8125 c -0.109,-0.041 -0.18555,0.3044 -0.18555,0.9258 0,0.8283 0.13751,1.1682 0.30469,0.7539 0.16718,-0.4143 0.16718,-1.0915 0,-1.5058 -0.0418,-0.1036 -0.0828,-0.1603 -0.11914,-0.1739 z m 0.60351,0 c -0.109,-0.041 -0.18554,0.3044 -0.18554,0.9258 0,0.8283 0.13555,1.1682 0.30273,0.7539 0.16719,-0.4143 0.16719,-1.0915 0,-1.5058 -0.0418,-0.1036 -0.0808,-0.1603 -0.11719,-0.1739 z m -1.30273,0.084 c -0.0551,0.1366 -0.0899,0.4275 -0.0899,0.8418 0,0.8283 0.13751,1.1682 0.30469,0.7539 0.16718,-0.4143 0.16718,-1.0915 0,-1.5058 -0.0836,-0.2072 -0.15975,-0.2264 -0.21484,-0.09 z m 0,4.8203 c -0.0551,0.1366 -0.0899,0.4295 -0.0899,0.8438 0,0.8283 0.13751,1.1663 0.30469,0.7519 0.16718,-0.4143 0.16718,-1.0915 0,-1.5058 -0.0836,-0.2072 -0.15975,-0.2264 -0.21484,-0.09 z m 1.20508,0 c -0.0551,0.1366 -0.0879,0.4295 -0.0879,0.8438 0,0.8283 0.13555,1.1663 0.30273,0.7519 0.16719,-0.4143 0.16719,-1.0915 0,-1.5058 -0.0836,-0.2072 -0.15975,-0.2264 -0.21484,-0.09 z m 414.625,2.4102 c -0.0551,0.1365 -0.0899,0.4295 -0.0899,0.8438 0,0.8283 0.13751,1.1683 0.30469,0.7539 0.16719,-0.4143 0.16719,-1.0936 0,-1.5079 -0.0836,-0.2071 -0.15975,-0.2263 -0.21484,-0.09 z m -415.31641,0.543 -0.0469,1.1543 c -0.0262,0.6353 0.11614,0.9912 0.3164,0.791 0.20028,-0.2003 0.22097,-0.7193 0.0469,-1.1543 z m -0.60352,0.6015 -0.0469,1.1563 c -0.0262,0.6353 0.11615,0.9913 0.31641,0.791 0.20027,-0.2002 0.2229,-0.7212 0.0488,-1.1563 z m 1.29493,0.062 c -0.0551,0.1366 -0.0879,0.4275 -0.0879,0.8418 0,0.8283 0.13555,1.1683 0.30273,0.7539 0.16719,-0.4143 0.16719,-1.0935 0,-1.5078 -0.0836,-0.2071 -0.15975,-0.2244 -0.21484,-0.088 z m 193.56836,0.541 0.82812,1.0547 c 0.78729,1.0039 1.28125,1.3222 1.28125,0.8262 0,-0.1251 -0.47464,-0.5998 -1.05469,-1.0547 z m 179.58984,1.2051 -1.05469,0.8262 c -0.58005,0.4549 -1.05469,0.9296 -1.05469,1.0547 0,0.4961 0.49592,0.1777 1.28321,-0.8262 z m 3.76758,1.709 c -0.41433,0.1671 -0.0767,0.3047 0.75195,0.3047 0.82861,0 1.16824,-0.1376 0.75391,-0.3047 -0.41432,-0.1672 -1.09154,-0.1672 -1.50586,0 z m -378.09961,5.1621 c -0.0544,0.1345 -0.0915,0.4657 -0.0977,0.9629 -0.0123,0.9941 0.11227,1.4744 0.27735,1.0664 0.16505,-0.408 0.17623,-1.2222 0.0234,-1.8086 -0.0764,-0.2931 -0.14872,-0.3551 -0.20312,-0.2207 z m 0.60156,0 c -0.0544,0.1345 -0.0915,0.4657 -0.0977,0.9629 -0.0123,0.9941 0.11422,1.4744 0.2793,1.0664 0.16505,-0.408 0.17429,-1.2222 0.0215,-1.8086 -0.0764,-0.2931 -0.14873,-0.3551 -0.20313,-0.2207 z m 0.60352,0 c -0.0544,0.1345 -0.0915,0.4657 -0.0977,0.9629 -0.0123,0.9941 0.11226,1.4744 0.27734,1.0664 0.16505,-0.408 0.17624,-1.2222 0.0234,-1.8086 -0.0764,-0.2931 -0.14872,-0.3551 -0.20312,-0.2207 z m -1.67188,5.3438 c -0.0827,-0.1381 -0.14062,1.0393 -0.14062,3.1523 0,2.8174 0.10359,3.9693 0.23047,2.5606 0.12688,-1.4087 0.12688,-3.7124 0,-5.1211 -0.0317,-0.3522 -0.0623,-0.5458 -0.0899,-0.5918 z m 0.60352,0.6035 c -0.0827,-0.1381 -0.14063,1.0393 -0.14063,3.1523 0,2.8174 0.10359,3.9693 0.23047,2.5606 0.12688,-1.4087 0.12688,-3.7144 0,-5.1231 -0.0317,-0.3521 -0.0623,-0.5438 -0.0898,-0.5898 z m 0.60156,0 c -0.0827,-0.1381 -0.14063,1.0393 -0.14063,3.1523 0,2.8174 0.10359,3.9693 0.23047,2.5606 0.12688,-1.4087 0.12688,-3.7144 0,-5.1231 -0.0317,-0.3521 -0.0623,-0.5438 -0.0898,-0.5898 z m -1.46094,10.6855 -0.0469,1.1543 c -0.0262,0.6353 0.11614,0.9912 0.3164,0.791 0.20028,-0.2003 0.22097,-0.7193 0.0469,-1.1543 z m 0.60156,0 -0.0469,1.1543 c -0.0262,0.6353 0.11615,0.9912 0.31641,0.791 0.20027,-0.2003 0.2229,-0.7193 0.0488,-1.1543 z m 0.80274,2.0313 c -0.0393,0.6238 -0.0639,2.0054 -0.0645,3.9941 -0.001,3.9775 0.0956,5.6839 0.21484,3.791 0.11904,-1.8929 0.11997,-5.1478 0.002,-7.2324 -0.059,-1.0423 -0.11304,-1.1765 -0.15234,-0.5527 z m -0.54492,1.7597 c -0.0819,-0.086 -0.14017,1.2022 -0.13867,3.4395 0.002,2.9832 0.10591,4.1274 0.23046,2.543 0.12489,-1.5844 0.12249,-4.0253 -0.004,-5.4239 -0.0316,-0.3496 -0.0606,-0.53 -0.0879,-0.5586 z m -0.51367,0.5586 c -0.12639,-1.3987 -0.22857,-0.1022 -0.22657,2.8809 0.002,2.9832 0.10397,4.1274 0.22852,2.543 0.12489,-1.5844 0.12444,-4.0253 -0.002,-5.4239 z m 321.375,6.877 c -0.27308,0 -0.54675,0.041 -0.75391,0.125 -0.41432,0.1672 -0.0747,0.3047 0.75391,0.3047 0.8286,0 1.16823,-0.1375 0.7539,-0.3047 -0.20716,-0.084 -0.48083,-0.125 -0.7539,-0.125 z m -170.87305,0.1992 c -0.109,-0.041 -0.18555,0.3062 -0.18555,0.9277 0,0.8283 0.1375,1.1683 0.30469,0.754 0.16718,-0.4143 0.16718,-1.0936 0,-1.5079 -0.0418,-0.1036 -0.0828,-0.1602 -0.11914,-0.1738 z m 1.01953,0.024 -0.0469,1.1562 c -0.0262,0.6353 0.11615,0.9912 0.31641,0.791 0.20028,-0.2003 0.22097,-0.7212 0.0469,-1.1562 z m -0.48242,0.2421 c -0.0544,0.1345 -0.0915,0.4657 -0.0977,0.9629 -0.0123,0.9941 0.11422,1.4744 0.2793,1.0664 0.16505,-0.408 0.17428,-1.2222 0.0215,-1.8086 -0.0764,-0.2931 -0.14872,-0.3551 -0.20312,-0.2207 z m 176.81445,2.6739 c -0.41432,0.1672 -0.0747,0.3047 0.75391,0.3047 0.82861,0 1.16627,-0.1375 0.75195,-0.3047 -0.41432,-0.1671 -1.09154,-0.1671 -1.50586,0 z m -176.74805,0.074 c -0.109,-0.041 -0.18554,0.3063 -0.18554,0.9277 0,0.8283 0.13554,1.1664 0.30273,0.752 0.16718,-0.4143 0.16718,-1.0916 0,-1.5059 -0.0418,-0.1036 -0.0808,-0.1603 -0.11719,-0.1738 z m -0.78906,0.023 -0.0469,1.1543 c -0.0262,0.6353 0.11615,0.9913 0.3164,0.791 0.20028,-0.2002 0.22097,-0.7192 0.0469,-1.1543 z m -150.48047,0.3653 c -0.0427,0.4067 -0.0693,1.3225 -0.0703,2.6484 -0.002,2.6512 0.10097,3.8104 0.23047,2.5762 0.12951,-1.2342 0.13316,-3.4029 0.006,-4.8203 -0.0637,-0.7088 -0.12332,-0.8111 -0.16602,-0.4043 z m 0.67383,0.1523 c -0.0857,-0.1725 -0.14814,0.7559 -0.15039,2.4961 -0.003,2.3204 0.1032,3.3432 0.23633,2.2734 0.13327,-1.0699 0.13632,-2.9683 0.006,-4.2187 -0.0326,-0.3126 -0.0632,-0.4933 -0.0918,-0.5508 z m 425.91016,11.5957 c -0.0551,0.1366 -0.0879,0.4294 -0.0879,0.8438 0,0.8283 0.13555,1.1682 0.30273,0.7539 0.16718,-0.4144 0.16718,-1.0935 0,-1.5079 -0.0836,-0.2071 -0.15975,-0.2263 -0.21484,-0.09 z m 0.0977,4.7383 c -0.109,-0.041 -0.18554,0.3042 -0.18554,0.9258 0,0.8283 0.13555,1.1682 0.30273,0.7539 0.16718,-0.4143 0.16718,-1.0916 0,-1.5059 -0.0418,-0.1036 -0.0809,-0.1603 -0.11719,-0.1738 z m -0.78906,0.023 -0.0469,1.1543 c -0.0262,0.6353 0.11615,0.9913 0.3164,0.791 0.20028,-0.2002 0.22097,-0.7193 0.0469,-1.1543 z m 0.17188,2.3828 c -0.10183,-0.01 -0.17188,0.336 -0.17188,0.9317 0,0.8283 0.1375,1.1662 0.30469,0.7519 0.16718,-0.4143 0.16718,-1.0915 0,-1.5058 -0.047,-0.1166 -0.093,-0.1745 -0.13281,-0.1778 z m -0.082,2.4981 c -0.0551,0.1365 -0.0898,0.4294 -0.0898,0.8437 0,0.8283 0.1375,1.1682 0.30469,0.7539 0.16718,-0.4143 0.16718,-1.0935 0,-1.5078 -0.0836,-0.2072 -0.15975,-0.2264 -0.21485,-0.09 z m 0,2.4121 c -0.0551,0.1365 -0.0898,0.4274 -0.0898,0.8418 0,0.8283 0.1375,1.1682 0.30469,0.7539 0.16718,-0.4143 0.16718,-1.0935 0,-1.5078 -0.0836,-0.2072 -0.15975,-0.2244 -0.21485,-0.088 z m 2.41016,14.4629 c -0.0551,0.1365 -0.0898,0.4275 -0.0898,0.8418 0,0.8283 0.1375,1.1683 0.30468,0.7539 0.16719,-0.4143 0.16719,-1.0916 0,-1.5059 -0.0836,-0.2071 -0.15974,-0.2264 -0.21484,-0.09 z m -385.58008,2.9512 -1.05468,0.8281 c -0.58005,0.4549 -1.05469,0.9296 -1.05469,1.0547 0,0.496 0.49591,0.1757 1.2832,-0.8282 z m 100.62305,4.1972 c -0.109,-0.041 -0.18555,0.3044 -0.18555,0.9258 0,0.8283 0.13556,1.1683 0.30274,0.7539 0.16718,-0.4143 0.16718,-1.0935 0,-1.5078 -0.0418,-0.1036 -0.0809,-0.1583 -0.11719,-0.1719 z m -0.18555,1.8301 -0.0488,1.1543 c -0.0262,0.6353 0.11615,0.9912 0.31641,0.791 0.20028,-0.2003 0.22292,-0.7193 0.0488,-1.1543 z m -0.36523,1.2559 c -0.0915,-0.1383 -0.15641,0.5148 -0.16016,1.7578 -0.005,1.6555 0.10891,2.4073 0.25196,1.666 0.14282,-0.7412 0.14634,-2.0976 0.008,-3.0137 -0.0346,-0.229 -0.0691,-0.3641 -0.0996,-0.4101 z m 1.15234,1.7343 c -0.109,-0.041 -0.18554,0.3063 -0.18554,0.9278 0,0.8284 0.1375,1.1662 0.30468,0.7519 0.16718,-0.4144 0.16718,-1.0914 0,-1.5058 -0.0418,-0.1036 -0.0828,-0.1603 -0.11914,-0.1739 z m -0.78711,0.024 -0.0488,1.1543 c -0.0262,0.6352 0.11615,0.9913 0.31641,0.791 0.20028,-0.2002 0.22292,-0.7192 0.0488,-1.1543 z m 389.40039,0.06 c -0.0551,0.1366 -0.0879,0.4295 -0.0879,0.8438 0,0.8284 0.13555,1.1662 0.30274,0.7519 0.16718,-0.4144 0.16718,-1.0914 0,-1.5058 -0.0836,-0.2072 -0.15975,-0.2264 -0.21485,-0.09 z m 0.0977,2.3262 c -0.109,-0.041 -0.18555,0.3062 -0.18555,0.9277 0,0.8283 0.13555,1.1682 0.30274,0.7539 0.16718,-0.4144 0.16718,-1.0934 0,-1.5078 -0.0418,-0.1036 -0.0809,-0.1603 -0.11719,-0.1738 z m -389.3125,2.4101 c -0.109,-0.04 -0.18555,0.3063 -0.18555,0.9278 0,0.8283 0.13556,1.1682 0.30274,0.7539 0.16718,-0.4144 0.16718,-1.0934 0,-1.5078 -0.0418,-0.1036 -0.0809,-0.1603 -0.11719,-0.1739 z m 389.21484,0.086 c -0.0551,0.1365 -0.0879,0.4274 -0.0879,0.8418 0,0.8283 0.13555,1.1682 0.30274,0.7539 0.16718,-0.4144 0.16718,-1.0934 0,-1.5078 -0.0836,-0.2072 -0.15975,-0.2245 -0.21485,-0.088 z m -388.67968,0.1797 c -0.0544,0.1344 -0.0896,0.4657 -0.0957,0.9629 -0.0123,0.9941 0.11227,1.4744 0.27735,1.0664 0.16505,-0.408 0.17428,-1.2203 0.0215,-1.8067 -0.0764,-0.2931 -0.14872,-0.3571 -0.20312,-0.2226 z m 328.51171,4.5566 c -0.109,-0.041 -0.18554,0.3062 -0.18554,0.9277 0,0.8283 0.13751,1.1663 0.30469,0.752 0.16718,-0.4143 0.16718,-1.0916 0,-1.5059 -0.0418,-0.1036 -0.0828,-0.1602 -0.11915,-0.1738 z m -0.78906,0.023 -0.0469,1.1543 c -0.0262,0.6353 0.11614,0.9913 0.3164,0.7911 0.20028,-0.2003 0.22292,-0.7193 0.0488,-1.1543 z m -0.51172,0.061 c -0.0551,0.1365 -0.0898,0.4294 -0.0898,0.8437 0,0.8283 0.1375,1.1663 0.30469,0.752 0.16718,-0.4143 0.16718,-1.0916 0,-1.5059 -0.0836,-0.2072 -0.15975,-0.2263 -0.21485,-0.09 z m -327.93164,0.541 -0.0488,1.1563 c -0.0262,0.6353 0.11615,0.9913 0.31641,0.791 0.20028,-0.2002 0.22292,-0.7212 0.0488,-1.1563 z m 327.93164,1.8692 c -0.0551,0.1365 -0.0898,0.4294 -0.0898,0.8437 0,0.8283 0.1375,1.1663 0.30469,0.752 0.16718,-0.4143 0.16718,-1.0916 0,-1.5059 -0.0836,-0.2072 -0.15975,-0.2264 -0.21485,-0.09 z m 0.60157,0 c -0.0551,0.1365 -0.0899,0.4294 -0.0899,0.8437 0,0.8283 0.13751,1.1663 0.30469,0.752 0.16718,-0.4143 0.16718,-1.0916 0,-1.5059 -0.0836,-0.2072 -0.15975,-0.2264 -0.21484,-0.09 z m 0.60351,0 c -0.0551,0.1365 -0.0898,0.4294 -0.0898,0.8437 0,0.8283 0.13751,1.1663 0.30469,0.752 0.16718,-0.4143 0.16718,-1.0916 0,-1.5059 -0.0836,-0.2072 -0.15975,-0.2264 -0.21485,-0.09 z m -0.44531,3.2382 c -0.0885,-0.1553 -0.154,0.6334 -0.15625,2.125 -0.003,1.9884 0.10664,2.8743 0.24414,1.9688 0.13736,-0.9056 0.13999,-2.5322 0.006,-3.6153 -0.0335,-0.2708 -0.0643,-0.4267 -0.0937,-0.4785 z m -541.82422,0.3164 -1.05469,0.8282 c -0.58005,0.4549 -1.05468,0.9295 -1.05468,1.0547 0,0.496 0.49397,0.1757 1.28125,-0.8282 z m 541.15039,0.1 c -0.0438,0.3526 -0.0727,1.1524 -0.0742,2.3125 -0.003,2.3204 0.10514,3.3413 0.23828,2.2715 0.13327,-1.0698 0.13437,-2.9664 0.004,-4.2168 -0.0652,-0.6251 -0.12414,-0.7197 -0.16797,-0.3672 z m 1.28516,0.064 c -0.0827,-0.1381 -0.14063,1.0373 -0.14063,3.1504 0,2.8174 0.10359,3.9712 0.23047,2.5625 0.12688,-1.4087 0.12688,-3.7144 0,-5.1231 -0.0317,-0.3521 -0.0623,-0.5438 -0.0898,-0.5898 z m -547.85938,7.0684 -1.05469,0.8261 c -0.58005,0.4549 -1.05468,0.9295 -1.05468,1.0547 0,0.496 0.49397,0.1776 1.28125,-0.8262 z m 263.24219,1.2656 c -0.0551,0.1365 -0.0898,0.4294 -0.0898,0.8437 0,0.8283 0.13554,1.1682 0.30273,0.7539 0.16718,-0.4143 0.16718,-1.0935 0,-1.5078 -0.0836,-0.2071 -0.1578,-0.2264 -0.21289,-0.09 z m -266.25586,1.748 -1.05469,0.8262 c -0.58005,0.4549 -1.05468,0.9296 -1.05468,1.0547 0,0.496 0.49397,0.1777 1.28125,-0.8262 z m 550.20117,0.5801 c -0.109,-0.041 -0.1875,0.3043 -0.1875,0.9258 0,0.8283 0.13751,1.1682 0.30469,0.7539 0.16718,-0.4143 0.16718,-1.0935 0,-1.5078 -0.0418,-0.1036 -0.0809,-0.1584 -0.11719,-0.1719 z m -0.78906,0.022 -0.0469,1.1562 c -0.0262,0.6353 0.11616,0.9914 0.31641,0.7911 0.20028,-0.2003 0.22097,-0.7212 0.0469,-1.1563 z m 1.20508,0.6035 -0.0469,1.1543 c -0.0262,0.6353 0.11615,0.9913 0.31641,0.791 0.20027,-0.2002 0.22095,-0.7193 0.0469,-1.1543 z m -553.14649,1.9609 c 0.006,0 0.0107,0.01 0.0176,0.01 -0.0351,0.036 -0.0723,0.07 -0.10742,0.1054 z m 555.74219,4.6446 c -0.109,-0.041 -0.18555,0.3063 -0.18555,0.9277 0,0.8283 0.1375,1.1683 0.30469,0.7539 0.16718,-0.4143 0.16718,-1.0935 0,-1.5078 -0.0418,-0.1036 -0.0828,-0.1603 -0.11914,-0.1738 z m -329.74609,1.289 c -0.0551,0.1366 -0.0899,0.4295 -0.0899,0.8438 0,0.8283 0.13751,1.1683 0.30469,0.7539 0.16719,-0.4143 0.16719,-1.0935 0,-1.5078 -0.0836,-0.2072 -0.15975,-0.2264 -0.21484,-0.09 z m 0.63281,0.7832 c -0.0544,0.1345 -0.0915,0.4677 -0.0977,0.9649 -0.0123,0.9941 0.11422,1.4744 0.2793,1.0664 0.16505,-0.408 0.17428,-1.2223 0.0215,-1.8086 -0.0764,-0.2932 -0.14872,-0.3571 -0.20312,-0.2227 z m 329.01758,0.4239 c -0.0551,0.1365 -0.0898,0.4275 -0.0898,0.8418 0,0.8283 0.1375,1.1683 0.30469,0.7539 0.16718,-0.4143 0.16718,-1.0935 0,-1.5078 -0.0836,-0.2072 -0.15975,-0.2245 -0.21484,-0.088 z m 0,2.4101 c -0.0551,0.1366 -0.0898,0.4275 -0.0898,0.8418 0,0.8284 0.1375,1.1682 0.30469,0.7539 0.16718,-0.4144 0.16718,-1.0915 0,-1.5058 -0.0836,-0.2072 -0.15975,-0.2264 -0.21484,-0.09 z m -328.92383,0.1465 c -0.0988,-0.057 -0.16797,0.4288 -0.16797,1.2988 0,1.1601 0.12381,1.6348 0.27539,1.0547 0.15159,-0.58 0.15159,-1.5293 0,-2.1093 -0.0379,-0.1451 -0.0745,-0.2252 -0.10742,-0.2442 z m -0.60352,0.6035 c -0.0988,-0.057 -0.16796,0.4268 -0.16796,1.2969 0,1.1601 0.12381,1.6347 0.27539,1.0547 0.15158,-0.5801 0.15158,-1.5293 0,-2.1094 -0.0379,-0.145 -0.0745,-0.2232 -0.10743,-0.2422 z m 282.10938,0.1465 1.31836,0.3438 c 1.99223,0.521 1.61624,2.0025 -1.71094,6.7402 -3.82801,5.4509 -5.4082,5.7762 -5.4082,1.1133 v -2.3965 l 2.90039,-2.9004 z m -281.71875,2.0547 -0.0488,1.1563 c -0.0262,0.6353 0.11811,0.9912 0.31836,0.791 0.20028,-0.2003 0.22097,-0.7213 0.0469,-1.1563 z m -0.48242,3.8574 c -0.0544,0.1345 -0.0915,0.4677 -0.0977,0.9649 -0.0123,0.9941 0.11226,1.4745 0.27734,1.0664 0.16505,-0.408 0.17429,-1.2223 0.0215,-1.8086 -0.0764,-0.2932 -0.14677,-0.3571 -0.20117,-0.2227 z m 0.63867,0.5313 c -0.0471,0.2442 -0.0776,0.81 -0.0801,1.6386 -0.005,1.6556 0.1089,2.4073 0.25195,1.6661 0.14282,-0.7412 0.14829,-2.0977 0.01,-3.0137 -0.0693,-0.4581 -0.13456,-0.5353 -0.18164,-0.291 z m -247.03711,0.4336 -1.05469,0.8261 c -0.58005,0.4549 -1.05469,0.9295 -1.05469,1.0547 0,0.496 0.49397,0.1777 1.28125,-0.8261 z m 246.36719,1.8691 c -0.0551,0.1366 -0.0899,0.4275 -0.0899,0.8418 0,0.8283 0.13751,1.1682 0.30469,0.7539 0.16719,-0.4143 0.16719,-1.0914 0,-1.5058 -0.0836,-0.2072 -0.15975,-0.2264 -0.21484,-0.09 z m 272.36914,2.4629 1.11328,1.4492 c 0.61313,0.7975 1.12191,1.8834 1.12891,2.4121 0.007,0.5287 -0.46076,1.3909 -1.04102,1.916 l -1.05664,0.9532 -1.05274,-0.5899 -1.05468,-0.5898 v -2.3985 -2.4003 l 0.98047,-0.377 z m 0.14648,4.0039 c -0.46808,0 -0.71172,0.2258 -0.54101,0.502 0.17071,0.2762 0.4144,0.5019 0.54101,0.5019 0.1266,0 0.37031,-0.2257 0.54102,-0.5019 0.17071,-0.2762 -0.073,-0.502 -0.54102,-0.502 z m 122.22071,0.7637 c -0.0551,0.1365 -0.0899,0.4294 -0.0899,0.8437 0,0.8283 0.13751,1.1682 0.30469,0.7539 0.16719,-0.4143 0.16719,-1.0935 0,-1.5078 -0.0836,-0.2072 -0.15975,-0.2264 -0.21484,-0.09 z m -602.56836,4.7344 c -0.10183,-0.01 -0.17188,0.334 -0.17188,0.9296 0,0.8283 0.1375,1.1682 0.30469,0.7539 0.16718,-0.4143 0.16718,-1.0915 0,-1.5058 -0.047,-0.1165 -0.093,-0.1745 -0.13281,-0.1777 z m 449.31054,1.0078 c -0.27307,0 -0.54674,0.043 -0.7539,0.1269 -0.41432,0.1672 -0.0748,0.3028 0.7539,0.3028 0.82861,0 1.16823,-0.1356 0.75391,-0.3028 -0.20716,-0.084 -0.48083,-0.1269 -0.75391,-0.1269 z m 4.10547,0.1132 -0.79101,0.3165 1.15625,0.047 c 0.6353,0.026 0.99127,-0.1161 0.79101,-0.3164 -0.20025,-0.1997 -0.72121,-0.221 -1.15625,-0.047 z m 1.77149,0.014 c -0.41432,0.1672 -0.0767,0.3028 0.75195,0.3028 0.82862,0 1.16822,-0.1356 0.75391,-0.3028 -0.41432,-0.1672 -1.09154,-0.1672 -1.50586,0 z m -5.87696,0.4766 c -0.27307,0 -0.54674,0.041 -0.7539,0.125 -0.41432,0.1672 -0.0748,0.3047 0.7539,0.3047 0.82861,0 1.16823,-0.1375 0.75391,-0.3047 -0.20716,-0.084 -0.48083,-0.125 -0.75391,-0.125 z m -4.72656,4.4414 -0.0469,1.1562 c -0.0262,0.6353 0.11614,0.9913 0.3164,0.7911 0.20027,-0.2003 0.22096,-0.7212 0.0469,-1.1563 z m 99.04883,0.7949 c -0.10302,-0.1068 -0.18218,0.2679 -0.19141,1.0137 -0.0123,0.9941 0.11422,1.4744 0.2793,1.0664 0.16505,-0.408 0.17428,-1.2222 0.0215,-1.8086 -0.0382,-0.1466 -0.075,-0.2359 -0.10937,-0.2715 z m -0.65625,0.3848 c -0.0947,0.021 -0.16016,0.36 -0.16016,0.9297 0,0.8283 0.13751,1.1682 0.30469,0.7539 0.16718,-0.4143 0.16718,-1.0935 0,-1.5078 -0.0522,-0.1295 -0.10147,-0.1854 -0.14453,-0.1758 z m -15.92383,12.459 c -0.27308,0 -0.54674,0.041 -0.75391,0.125 -0.41432,0.1672 -0.0747,0.3046 0.75391,0.3046 0.82861,0 1.16823,-0.1374 0.75391,-0.3046 -0.20716,-0.084 -0.48083,-0.125 -0.75391,-0.125 z m -15.50586,0.1054 c -0.58636,0.1528 -0.25414,0.2888 0.74024,0.3008 0.9944,0.012 1.47441,-0.1122 1.0664,-0.2773 -0.40802,-0.1647 -1.22028,-0.1763 -1.80664,-0.024 z m 14.85352,0.4922 c -0.20936,-0.01 -0.4485,0.03 -0.66602,0.1172 l -0.79101,0.3164 1.15625,0.049 c 0.63528,0.026 0.98931,-0.1162 0.78906,-0.3164 -0.10013,-0.1003 -0.27893,-0.1573 -0.48828,-0.166 z m 1.85742,0 c -0.27308,0 -0.54675,0.041 -0.75391,0.125 -0.41433,0.1672 -0.0747,0.3047 0.75391,0.3047 0.82861,0 1.16823,-0.1375 0.7539,-0.3047 -0.20716,-0.084 -0.48083,-0.125 -0.7539,-0.125 z m -17.02539,0.125 c -0.41433,0.1672 -0.0747,0.3047 0.7539,0.3047 0.82861,0 1.16824,-0.1375 0.75391,-0.3047 -0.41432,-0.1672 -1.09349,-0.1672 -1.50781,0 z m 16.91211,0.5918 -0.79102,0.3145 1.15625,0.049 c 0.6353,0.026 0.99128,-0.1161 0.79102,-0.3164 -0.20025,-0.1997 -0.72121,-0.221 -1.15625,-0.047 z m 1.80859,0 -0.79101,0.3145 1.15429,0.049 c 0.63529,0.026 0.99128,-0.1161 0.79102,-0.3164 -0.20026,-0.1997 -0.71926,-0.221 -1.1543,-0.047 z m -328.14844,5.5938 c -0.0551,0.1365 -0.0879,0.4294 -0.0879,0.8437 0,0.8283 0.13556,1.1682 0.30274,0.7539 0.16718,-0.4144 0.16718,-1.0934 0,-1.5078 -0.0836,-0.2071 -0.15975,-0.2264 -0.21485,-0.09 z m 0.6875,3.5293 c -0.10182,-0.01 -0.17382,0.334 -0.17382,0.9297 0,0.8283 0.1375,1.1682 0.30468,0.7539 0.16718,-0.4143 0.16718,-1.0916 0,-1.5059 -0.047,-0.1166 -0.091,-0.1745 -0.13086,-0.1777 z m -0.5625,0.2343 c -0.0988,-0.057 -0.16797,0.4288 -0.16797,1.2989 0,1.1601 0.12381,1.6347 0.2754,1.0547 0.15158,-0.5801 0.15158,-1.5294 0,-2.1094 -0.0379,-0.145 -0.0745,-0.2252 -0.10743,-0.2442 z m 347.70313,0.9746 c -0.109,-0.041 -0.1875,0.3043 -0.1875,0.9258 0,0.8283 0.1375,1.1682 0.30469,0.7539 0.16718,-0.4143 0.16718,-1.0915 0,-1.5058 -0.0418,-0.1036 -0.0809,-0.1603 -0.11719,-0.1739 z m 0.50586,0.084 c -0.0551,0.1366 -0.0898,0.4275 -0.0898,0.8418 0,0.8283 0.1375,1.1682 0.30469,0.7539 0.16718,-0.4143 0.16718,-1.0915 0,-1.5058 -0.0836,-0.2072 -0.15975,-0.2264 -0.21484,-0.09 z m 0.60156,0 c -0.0551,0.1366 -0.0879,0.4275 -0.0879,0.8418 0,0.8283 0.13555,1.1682 0.30273,0.7539 0.16718,-0.4143 0.16718,-1.0915 0,-1.5058 -0.0836,-0.2072 -0.15974,-0.2264 -0.21484,-0.09 z m 0.60352,0 c -0.0551,0.1366 -0.0899,0.4275 -0.0899,0.8418 0,0.8283 0.13751,1.1682 0.30469,0.7539 0.16718,-0.4143 0.16718,-1.0915 0,-1.5058 -0.0836,-0.2072 -0.15975,-0.2264 -0.21484,-0.09 z m -349.02539,1.7461 -0.0469,1.1563 c -0.0262,0.6353 0.11615,0.9913 0.31641,0.791 0.20028,-0.2002 0.22096,-0.7212 0.0469,-1.1563 z m -0.41602,0.5801 c -0.109,-0.041 -0.18555,0.3062 -0.18555,0.9277 0,0.8283 0.13556,1.1663 0.30274,0.752 0.16718,-0.4143 0.16718,-1.0916 0,-1.5059 -0.0418,-0.1036 -0.0809,-0.1603 -0.11719,-0.1738 z m -0.69922,0.084 c -0.0551,0.1365 -0.0898,0.4294 -0.0898,0.8437 0,0.8283 0.13749,1.1663 0.30468,0.752 0.16718,-0.4143 0.16718,-1.0916 0,-1.5059 -0.0836,-0.2072 -0.15975,-0.2263 -0.21484,-0.09 z m 1.20508,2.4101 c -0.0551,0.1366 -0.0898,0.4294 -0.0898,0.8438 0,0.8283 0.1375,1.1682 0.30468,0.7539 0.16718,-0.4143 0.16718,-1.0935 0,-1.5078 -0.0836,-0.2072 -0.15975,-0.2264 -0.21484,-0.09 z m 331.27344,3.9356 c -0.27308,0 -0.54675,0.041 -0.75391,0.125 -0.41432,0.1671 -0.0747,0.3027 0.75391,0.3027 0.82862,0 1.16822,-0.1356 0.7539,-0.3027 -0.20716,-0.084 -0.48083,-0.125 -0.7539,-0.125 z m 1.69531,0.1113 -0.79102,0.3164 1.1543,0.049 c 0.6353,0.026 0.99128,-0.1163 0.79102,-0.3165 -0.20025,-0.2007 -0.71926,-0.2229 -1.1543,-0.049 z m -7.26953,0.014 c -0.41433,0.1671 -0.0747,0.3027 0.7539,0.3027 0.82862,0 1.16628,-0.1356 0.75196,-0.3027 -0.41433,-0.1672 -1.09154,-0.1672 -1.50586,0 z m 2.41015,0 c -0.41432,0.1671 -0.0747,0.3027 0.75391,0.3027 0.82861,0 1.16823,-0.1356 0.75391,-0.3027 -0.41432,-0.1672 -1.09349,-0.1672 -1.50782,0 z m 4.82227,0.6016 c -0.41432,0.1672 -0.0767,0.3046 0.75195,0.3046 0.82861,0 1.16824,-0.1374 0.75391,-0.3046 -0.41432,-0.1672 -1.09153,-0.1672 -1.50586,0 z m 0.0371,0.5918 -0.79102,0.3164 1.1543,0.047 c 0.6353,0.026 0.99128,-0.1162 0.79102,-0.3164 -0.20025,-0.2007 -0.71926,-0.2209 -1.1543,-0.047 z m 84.70508,3.4492 c -0.05,0.1911 -0.082,0.5996 -0.082,1.1797 0,1.1601 0.12575,1.6346 0.27734,1.0546 0.15158,-0.5801 0.15158,-1.5292 0,-2.1093 -0.0758,-0.29 -0.14536,-0.3162 -0.19531,-0.125 z m 1.20508,0.6035 c -0.05,0.1911 -0.0801,0.5996 -0.0801,1.1797 0,1.1601 0.12381,1.6348 0.27539,1.0547 0.15158,-0.58 0.15158,-1.5294 0,-2.1094 -0.0758,-0.2901 -0.14536,-0.3162 -0.19531,-0.125 z m -0.72852,0.2754 -0.0469,1.1543 c -0.0262,0.6353 0.11615,0.9912 0.31641,0.791 0.20028,-0.2003 0.22097,-0.7193 0.0469,-1.1543 z m -1.08594,0.2422 c -0.0544,0.1344 -0.0895,0.4657 -0.0957,0.9629 -0.0123,0.9941 0.11226,1.4745 0.27734,1.0664 0.16505,-0.408 0.17429,-1.2223 0.0215,-1.8086 -0.0764,-0.2932 -0.14873,-0.3552 -0.20313,-0.2207 z m -319.66992,1.3379 c -0.20936,-0.01 -0.4485,0.03 -0.66602,0.1171 l -0.79101,0.3164 1.15625,0.049 c 0.63529,0.026 0.99126,-0.1161 0.79101,-0.3164 -0.10013,-0.1003 -0.28087,-0.1574 -0.49023,-0.166 z m 2.38867,0 c -0.32769,0 -0.67752,0.031 -0.9707,0.1074 -0.58636,0.1528 -0.25218,0.2888 0.74219,0.3008 0.99441,0.012 1.47442,-0.1142 1.0664,-0.2793 -0.204,-0.082 -0.5102,-0.1249 -0.83789,-0.1289 z m -5.50195,0.1269 c -0.41432,0.1672 -0.0747,0.3027 0.75391,0.3027 0.8286,0 1.16627,-0.1355 0.75195,-0.3027 -0.41432,-0.1672 -1.09153,-0.1672 -1.50586,0 z m -4.06836,0.4766 c -0.27308,0 -0.54675,0.041 -0.75391,0.125 -0.41432,0.1672 -0.0747,0.3047 0.75391,0.3047 0.82861,0 1.16823,-0.1375 0.75391,-0.3047 -0.20716,-0.084 -0.48083,-0.125 -0.75391,-0.125 z m 9.64258,0 c -0.27308,0 -0.54674,0.041 -0.75391,0.125 -0.41432,0.1672 -0.0747,0.3047 0.75391,0.3047 0.82861,0 1.16823,-0.1375 0.7539,-0.3047 -0.20716,-0.084 -0.48083,-0.125 -0.7539,-0.125 z m -10.39649,0.7285 c -0.41432,0.1672 -0.0747,0.3027 0.75391,0.3027 0.82861,0 1.16823,-0.1355 0.75391,-0.3027 -0.41432,-0.1672 -1.0935,-0.1672 -1.50782,0 z m -279.89648,9.1973 c -0.0551,0.1365 -0.0898,0.4294 -0.0898,0.8437 0,0.8283 0.13749,1.1683 0.30468,0.7539 0.16718,-0.4143 0.16718,-1.0935 0,-1.5078 -0.0836,-0.2071 -0.15975,-0.2264 -0.21484,-0.09 z m 0.60156,0 c -0.0551,0.1365 -0.0879,0.4294 -0.0879,0.8437 0,0.8283 0.13555,1.1683 0.30274,0.7539 0.16718,-0.4143 0.16718,-1.0935 0,-1.5078 -0.0836,-0.2071 -0.15975,-0.2264 -0.21485,-0.09 z m 0.60352,0 c -0.0551,0.1365 -0.0899,0.4294 -0.0899,0.8437 0,0.8283 0.13751,1.1683 0.30469,0.7539 0.16718,-0.4143 0.16718,-1.0935 0,-1.5078 -0.0836,-0.2071 -0.15975,-0.2264 -0.21484,-0.09 z m 592.82422,1.5234 c -0.27308,0 -0.54675,0.043 -0.75391,0.1269 -0.41432,0.1672 -0.0747,0.3028 0.75391,0.3028 0.82861,0 1.16823,-0.1356 0.7539,-0.3028 -0.20716,-0.084 -0.48083,-0.1269 -0.7539,-0.1269 z m -10.84766,0.5918 c -0.71,0 -1.42037,0.033 -1.95898,0.1 -1.07724,0.1337 -0.1955,0.2441 1.95898,0.2441 2.15448,0 3.03622,-0.1104 1.95898,-0.2441 -0.53862,-0.067 -1.24898,-0.1 -1.95898,-0.1 z m 5.91406,0.125 -0.79101,0.3164 1.15429,0.047 c 0.6353,0.026 0.99128,-0.1162 0.79102,-0.3164 -0.20025,-0.2007 -0.71926,-0.221 -1.1543,-0.047 z m -6.51758,0.4766 c -0.81922,0 -1.63828,0.033 -2.25976,0.098 -1.24297,0.13 -0.22617,0.2363 2.25976,0.2363 2.48594,0 3.50469,-0.1063 2.26172,-0.2363 -0.62148,-0.065 -1.44249,-0.098 -2.26172,-0.098 z m -5.42382,0.014 c -0.27308,0 -0.54479,0.041 -0.75196,0.125 -0.41432,0.1672 -0.0767,0.3028 0.75196,0.3028 0.82861,0 1.16823,-0.1356 0.7539,-0.3028 -0.20716,-0.084 -0.48083,-0.125 -0.7539,-0.125 z m -389.58985,0.061 c -0.0937,-0.073 -0.16015,0.5493 -0.16015,1.6679 0,1.4916 0.11807,2.1033 0.26171,1.3575 0.14364,-0.7458 0.14364,-1.9671 0,-2.7129 -0.0359,-0.1865 -0.0703,-0.2882 -0.10156,-0.3125 z m 391.26758,0.6172 c -1.75127,0.1221 -0.47083,0.2265 2.84375,0.2265 3.31459,0 4.7469,-0.099 3.18359,-0.2226 -1.56331,-0.1208 -4.27607,-0.1221 -6.02734,0 z m 9.05859,0.037 -0.79101,0.3164 1.1543,0.049 c 0.63528,0.026 0.99127,-0.1182 0.79101,-0.3184 -0.20026,-0.2007 -0.71926,-0.2209 -1.1543,-0.047 z m -21.13086,0.012 c -0.41432,0.1672 -0.0747,0.3047 0.75391,0.3047 0.82862,0 1.16627,-0.1375 0.75195,-0.3047 -0.41432,-0.1672 -1.09154,-0.1672 -1.50586,0 z m -379.88476,0 c -0.0497,0.1899 -0.0824,0.6398 -0.0859,1.3028 -0.007,1.326 0.11088,1.9374 0.26172,1.3613 0.15088,-0.5762 0.15587,-1.6606 0.0117,-2.4102 -0.0721,-0.3748 -0.13783,-0.4437 -0.1875,-0.2539 z m 1.1875,0.4239 c -0.05,0.1911 -0.0801,0.5996 -0.0801,1.1797 0,1.1601 0.12381,1.6347 0.27539,1.0546 0.15159,-0.58 0.15159,-1.5293 0,-2.1093 -0.0758,-0.2901 -0.14536,-0.3162 -0.19531,-0.125 z m 348.58594,0.6504 c -0.18892,0 -0.39561,0.041 -0.58594,0.1171 l -0.79102,0.3165 1.1543,0.049 c 0.6353,0.026 0.99128,-0.1162 0.79102,-0.3164 -0.11264,-0.1129 -0.32547,-0.1695 -0.56836,-0.166 z m 18.05859,0.1289 c -0.41432,0.1672 -0.0767,0.3047 0.75195,0.3047 0.82861,0 1.16823,-0.1375 0.75391,-0.3047 -0.41432,-0.1672 -1.09154,-0.1672 -1.50586,0 z m -18.97266,0.584 c -0.58636,0.1528 -0.25218,0.2887 0.74219,0.3007 0.99441,0.012 1.47443,-0.1122 1.06641,-0.2773 -0.40801,-0.1647 -1.22224,-0.1743 -1.8086,-0.022 z m 0,0.6035 c -0.58636,0.1528 -0.25218,0.2887 0.74219,0.3007 0.99441,0.012 1.47443,-0.1141 1.06641,-0.2792 -0.40801,-0.1648 -1.22224,-0.1743 -1.8086,-0.022 z m 0.32813,0.6093 -0.79102,0.3164 1.1543,0.047 c 0.6353,0.026 0.99128,-0.1161 0.79102,-0.3164 -0.20025,-0.2007 -0.71926,-0.221 -1.1543,-0.047 z m -567.13281,2.4219 c -0.41432,0.1672 -0.0767,0.3047 0.75195,0.3047 0.82861,0 1.16823,-0.1375 0.75391,-0.3047 -0.41432,-0.1672 -1.09153,-0.1672 -1.50586,0 z m -0.9043,0.5879 c -0.58006,0.1516 -0.10542,0.2754 1.05469,0.2754 1.1601,0 1.63473,-0.1238 1.05468,-0.2754 -0.58005,-0.1516 -1.52932,-0.1516 -2.10937,0 z m 8.17383,0 -0.79102,0.3183 1.1543,0.047 c 0.63529,0.026 0.99126,-0.1161 0.79101,-0.3164 -0.20026,-0.2007 -0.71925,-0.2229 -1.15429,-0.049 z m -4.85938,0.014 c -0.41432,0.1672 -0.0747,0.3047 0.75391,0.3047 0.82862,0 1.16627,-0.1375 0.75195,-0.3047 -0.41433,-0.1672 -1.09154,-0.1672 -1.50586,0 z m 265.86914,2.2813 c -0.20936,-0.01 -0.44654,0.03 -0.66406,0.1172 l -0.79101,0.3164 1.15429,0.047 c 0.6353,0.026 0.99128,-0.1162 0.79102,-0.3165 -0.10013,-0.1003 -0.28088,-0.1553 -0.49024,-0.164 z m 2.41211,0 c -0.20935,-0.01 -0.44849,0.03 -0.66601,0.1172 l -0.79102,0.3164 1.1543,0.047 c 0.63529,0.026 0.99127,-0.1162 0.79101,-0.3165 -0.10013,-0.1003 -0.27892,-0.1553 -0.48828,-0.164 z m 5.42383,0 c -0.20936,-0.01 -0.4485,0.03 -0.66601,0.1172 l -0.79102,0.3164 1.1543,0.047 c 0.6353,0.026 0.99127,-0.1162 0.79101,-0.3165 -0.10012,-0.1003 -0.27892,-0.1553 -0.48828,-0.164 z m 1.85742,0 c -0.27307,0 -0.54674,0.041 -0.7539,0.125 -0.41432,0.1672 -0.0747,0.3047 0.7539,0.3047 0.82862,0 1.16823,-0.1375 0.75391,-0.3047 -0.20717,-0.084 -0.48083,-0.125 -0.75391,-0.125 z m 4.82032,0 c -0.27308,0 -0.5448,0.041 -0.75196,0.125 -0.41432,0.1672 -0.0767,0.3047 0.75196,0.3047 0.82861,0 1.16822,-0.1375 0.7539,-0.3047 -0.20716,-0.084 -0.48083,-0.125 -0.7539,-0.125 z m 7.23242,0 c -0.27308,0 -0.54675,0.041 -0.75391,0.125 -0.41432,0.1672 -0.0747,0.3047 0.75391,0.3047 0.82862,0 1.16822,-0.1375 0.7539,-0.3047 -0.20716,-0.084 -0.48083,-0.125 -0.7539,-0.125 z m -27.56055,0.1074 c -0.58636,0.1528 -0.25218,0.2868 0.74219,0.2988 0.99441,0.012 1.47442,-0.1122 1.0664,-0.2773 -0.40801,-0.1648 -1.22223,-0.1743 -1.80859,-0.022 z m 23.49219,0 c -0.58006,0.1516 -0.10542,0.2754 1.05469,0.2754 1.16009,0 1.63473,-0.1238 1.05468,-0.2754 -0.58006,-0.1516 -1.52932,-0.1516 -2.10937,0 z m -20.79102,0.016 c -0.41432,0.1672 -0.0747,0.3047 0.75391,0.3047 0.82862,0 1.16627,-0.1375 0.75195,-0.3047 -0.41432,-0.1672 -1.09154,-0.1672 -1.50586,0 z m 26.51758,0 c -0.41432,0.1672 -0.0767,0.3047 0.75195,0.3047 0.82861,0 1.16824,-0.1375 0.75391,-0.3047 -0.41432,-0.1672 -1.09153,-0.1672 -1.50586,0 z m 2.41016,0 c -0.41432,0.1672 -0.0747,0.3047 0.7539,0.3047 0.82862,0 1.16628,-0.1375 0.75196,-0.3047 -0.41432,-0.1672 -1.09154,-0.1672 -1.50586,0 z m -21.07227,0.4726 c -0.18892,0 -0.39561,0.041 -0.58594,0.1172 l -0.79101,0.3164 1.15429,0.049 c 0.6353,0.026 0.99128,-0.1162 0.79102,-0.3164 -0.11264,-0.1129 -0.32546,-0.1695 -0.56836,-0.1661 z m -10.16601,0 c -0.20936,-0.01 -0.44655,0.028 -0.66407,0.1152 l -0.79101,0.3164 1.15429,0.049 c 0.63529,0.026 0.99128,-0.1162 0.79102,-0.3164 -0.10013,-0.1004 -0.28088,-0.1554 -0.49023,-0.1641 z m 4.21875,0 c -0.20936,-0.01 -0.4485,0.028 -0.66602,0.1152 l -0.78906,0.3164 1.15429,0.049 c 0.6353,0.026 0.99128,-0.1162 0.79102,-0.3164 -0.10013,-0.1004 -0.28088,-0.1554 -0.49023,-0.1641 z m 14.46484,0 c -0.20936,-0.01 -0.4485,0.028 -0.66602,0.1152 l -0.79101,0.3164 1.15429,0.049 c 0.63529,0.026 0.99127,-0.1162 0.79102,-0.3164 -0.10013,-0.1004 -0.27892,-0.1554 -0.48828,-0.1641 z m -10.79883,0 c -0.27308,0 -0.54479,0.042 -0.75195,0.125 -0.41432,0.1672 -0.0767,0.3027 0.75195,0.3027 0.82861,0 1.16823,-0.1355 0.75391,-0.3027 -0.20716,-0.083 -0.48083,-0.125 -0.75391,-0.125 z m 7.23242,0 c -0.27307,0 -0.54674,0.042 -0.7539,0.125 -0.41432,0.1672 -0.0747,0.3027 0.7539,0.3027 0.82862,0 1.16823,-0.1355 0.75391,-0.3027 -0.20717,-0.083 -0.48083,-0.125 -0.75391,-0.125 z m 12.05274,0 c -0.27308,0 -0.54675,0.042 -0.75391,0.125 -0.41432,0.1672 -0.0747,0.3027 0.75391,0.3027 0.82862,0 1.16822,-0.1355 0.7539,-0.3027 -0.20716,-0.083 -0.48083,-0.125 -0.7539,-0.125 z m 4.38086,0.1055 c -0.58636,0.1528 -0.25219,0.2888 0.74218,0.3008 0.99441,0.012 1.47442,-0.1143 1.06641,-0.2793 -0.40801,-0.1647 -1.22223,-0.1743 -1.80859,-0.022 z m -11.72461,0.01 -0.79102,0.3164 1.1543,0.049 c 0.63529,0.026 0.99127,-0.1162 0.79101,-0.3164 -0.20026,-0.2007 -0.71925,-0.223 -1.15429,-0.049 z m -7.87305,0.014 c -0.41432,0.1672 -0.0747,0.3027 0.75391,0.3027 0.82861,0 1.16627,-0.1355 0.75195,-0.3027 -0.41432,-0.1671 -1.09153,-0.1671 -1.50586,0 z m 16.875,0 c -0.41432,0.1672 -0.0767,0.3027 0.75195,0.3027 0.82861,0 1.16824,-0.1355 0.75391,-0.3027 -0.41432,-0.1671 -1.09153,-0.1671 -1.50586,0 z m -13.76172,0.4727 c -0.20936,-0.01 -0.44654,0.03 -0.66406,0.1171 l -0.79102,0.3165 1.1543,0.047 c 0.63529,0.026 0.99127,-0.1161 0.79102,-0.3164 -0.10013,-0.1003 -0.28088,-0.1554 -0.49024,-0.164 z m 2.95117,0.1171 -0.79101,0.3165 1.15429,0.047 c 0.63529,0.026 0.99127,-0.1161 0.79102,-0.3164 -0.20026,-0.2006 -0.71926,-0.221 -1.1543,-0.047 z m -6.06445,0.012 c -0.41432,0.1672 -0.0747,0.3047 0.75391,0.3047 0.82861,0 1.16627,-0.1375 0.75195,-0.3047 -0.41432,-0.1672 -1.09153,-0.1672 -1.50586,0 z m -49.91992,1.0761 c -0.20936,-0.01 -0.4485,0.03 -0.66602,0.1172 l -0.79101,0.3164 1.15625,0.049 c 0.63529,0.026 0.99126,-0.1161 0.79101,-0.3164 -0.10013,-0.1003 -0.28087,-0.1574 -0.49023,-0.1661 z m 14.51367,0 c -0.27308,0 -0.54479,0.041 -0.75195,0.125 -0.41432,0.1672 -0.0767,0.3047 0.75195,0.3047 0.82861,0 1.16824,-0.1375 0.75391,-0.3047 -0.20716,-0.084 -0.48083,-0.125 -0.75391,-0.125 z m 2.41016,0 c -0.27308,0 -0.5448,0.041 -0.75196,0.125 -0.41432,0.1672 -0.0767,0.3047 0.75196,0.3047 0.82861,0 1.16822,-0.1375 0.7539,-0.3047 -0.20716,-0.084 -0.48083,-0.125 -0.7539,-0.125 z m -13.08399,0.076 c -1.91799,0.12 -0.50542,0.2207 3.14063,0.2207 3.64603,0 5.21633,-0.097 3.48828,-0.2187 -1.72806,-0.1188 -4.71092,-0.1199 -6.62891,0 z m -3.91992,0.5215 c -0.18892,0 -0.39561,0.043 -0.58594,0.1191 l -0.79101,0.3164 1.15625,0.047 c 0.63529,0.026 0.99126,-0.1162 0.79101,-0.3164 -0.11264,-0.1129 -0.32742,-0.1695 -0.57031,-0.166 z m 3.5957,0.086 c -1.74015,0.1213 -0.31624,0.2207 3.16407,0.2207 3.4803,0 4.90422,-0.099 3.16406,-0.2207 -1.74016,-0.1218 -4.58797,-0.1218 -6.32813,0 z m 12.65625,0.045 c -0.41432,0.1672 -0.0767,0.3046 0.75196,0.3046 0.82861,0 1.16822,-0.1374 0.7539,-0.3046 -0.41432,-0.1671 -1.09154,-0.1671 -1.50586,0 z m -16.25195,0.4726 c -0.18892,0 -0.39561,0.041 -0.58594,0.1172 l -0.79101,0.3164 1.15625,0.049 c 0.63529,0.026 0.99126,-0.1161 0.79101,-0.3164 -0.11264,-0.1128 -0.32742,-0.1694 -0.57031,-0.166 z m 17.00391,0 c -0.27308,0 -0.5448,0.043 -0.75196,0.127 -0.41432,0.1672 -0.0767,0.3027 0.75196,0.3027 0.82861,0 1.16822,-0.1355 0.7539,-0.3027 -0.20716,-0.084 -0.48083,-0.127 -0.7539,-0.127 z m -13.08399,0.076 c -1.91799,0.12 -0.50542,0.2207 3.14063,0.2207 3.64603,0 5.21633,-0.097 3.48828,-0.2188 -1.72806,-0.1188 -4.71092,-0.1199 -6.62891,0 z" /></g><path
       style="fill:#1d0f32;fill-opacity:1;stroke-width:3.04948"
       d="m -445.56197,947.17497 c 0,0 -5.88551,16.18514 17.65652,36.04873 23.54203,19.8636 45.61269,16.18515 45.61269,16.18515 l 13.24239,8.09255 -32.37029,66.212 -18.39221,-6.6212 -5.88551,25.0134 -64.0049,-21.335 v 0 l 3.67844,-40.4628 c 0,0 -10.8373,-15.3993 -10.56739,-24.1962 0.53133,-17.31724 6.14988,-36.24117 23.68356,-46.26674 25.62049,-14.64953 27.3467,-12.66989 27.3467,-12.66989 z"
       id="path99"
       sodipodi:nodetypes="csccccccccasc" /><path
       style="fill:#1d4f32;fill-opacity:1;stroke-width:3.04948"
       d="m -61.9285,1041.0931 42.15802,13.7824 4.45902,-5.2697 -3.64829,9.3234 74.99263,-12.9717 29.186324,-55.53511 c 0,0 11.131976,-37.36625 10.134136,-44.18484 -2.432189,-16.61999 -11.694577,-23.217 -17.83608,-32.42925 -6.48585,-9.72877 -20.26828,-14.18779 -20.26828,-14.18779 0,0 1.2161,17.02535 -23.10584,31.61851 -24.32193,14.59316 -67.69605,36.88827 -67.69605,36.88827 0,0 20.67365,13.78243 17.43072,24.7273 -3.24292,10.94491 -36.88827,36.48291 -36.88827,36.48291 l -7.70194,5.6751 z"
       id="path100"
       sodipodi:nodetypes="ccccccsscscsccc" /><path
       style="fill:url(#radialGradient102);fill-opacity:1;stroke-width:3.04948"
       d="m -445.56197,947.17497 c 0,0 -5.88551,16.18514 17.65652,36.04873 23.54203,19.8636 45.61269,16.18515 45.61269,16.18515 l 13.24239,8.09255 -32.37029,66.212 -18.39221,-6.6212 -5.88551,25.0134 -64.0049,-21.335 v 0 l 3.67844,-40.4628 c 0,0 -10.8373,-15.3993 -10.56739,-24.1962 0.53133,-17.31724 6.14988,-36.24117 23.68356,-46.26674 25.62049,-14.64953 27.3467,-12.66989 27.3467,-12.66989 z"
       id="path101"
       sodipodi:nodetypes="csccccccccasc" /><path
       style="fill:url(#radialGradient104);fill-opacity:1;stroke-width:3.04948"
       d="m -61.9285,1041.0931 42.15802,13.7824 4.45902,-5.2697 -3.64829,9.3234 74.99263,-12.9717 29.186324,-55.53511 c 0,0 11.131976,-37.36625 10.134136,-44.18484 -2.432189,-16.61999 -11.694577,-23.217 -17.83608,-32.42925 -6.48585,-9.72877 -20.26828,-14.18779 -20.26828,-14.18779 0,0 1.2161,17.02535 -23.10584,31.61851 -24.32193,14.59316 -67.69605,36.88827 -67.69605,36.88827 0,0 20.67365,13.78243 17.43072,24.7273 -3.24292,10.94491 -36.88827,36.48291 -36.88827,36.48291 l -7.70194,5.6751 z"
       id="path102"
       sodipodi:nodetypes="ccccccsscscsccc" /></g></svg>
